<?xml version="1.0" encoding="utf-8" standalone="no"?>
<!DOCTYPE svg PUBLIC "-//W3C//DTD SVG 1.1//EN"
  "http://www.w3.org/Graphics/SVG/1.1/DTD/svg11.dtd">
<svg xmlns:xlink="http://www.w3.org/1999/xlink" width="315.046219pt" height="315.046219pt" viewBox="0 0 315.046219 315.046219" xmlns="http://www.w3.org/2000/svg" version="1.1">
 <metadata>
  <rdf:RDF xmlns:dc="http://purl.org/dc/elements/1.1/" xmlns:cc="http://creativecommons.org/ns#" xmlns:rdf="http://www.w3.org/1999/02/22-rdf-syntax-ns#">
   <cc:Work>
    <dc:type rdf:resource="http://purl.org/dc/dcmitype/StillImage"/>
    <dc:date>2025-03-18T15:30:38.232357</dc:date>
    <dc:format>image/svg+xml</dc:format>
    <dc:creator>
     <cc:Agent>
      <dc:title>Matplotlib v3.10.0, https://matplotlib.org/</dc:title>
     </cc:Agent>
    </dc:creator>
   </cc:Work>
  </rdf:RDF>
 </metadata>
 <defs>
  <style type="text/css">*{stroke-linejoin: round; stroke-linecap: butt}</style>
 </defs>
 <g id="figure_1">
  <g id="patch_1">
   <path d="M 0 315.046219 
L 315.046219 315.046219 
L 315.046219 0 
L 0 0 
z
" style="fill: #ffffff"/>
  </g>
  <g id="axes_1">
   <g id="patch_2">
    <path d="M 41.734219 273.312 
L 307.846219 273.312 
L 307.846219 7.2 
L 41.734219 7.2 
z
" style="fill: #eaeaf2"/>
   </g>
   <g id="matplotlib.axis_1">
    <g id="xtick_1">
     <g id="line2d_1">
      <path d="M 52.822219 273.312 
L 52.822219 7.2 
" clip-path="url(#paa70a0d7dc)" style="fill: none; stroke: #ffffff; stroke-linecap: round"/>
     </g>
     <g id="text_1">
      <!-- 1 -->
      <g style="fill: #262626" transform="translate(49.763703 290.685594) scale(0.11 -0.11)">
       <defs>
        <path id="ArialMT-31" d="M 2384 0 
L 1822 0 
L 1822 3584 
Q 1619 3391 1289 3197 
Q 959 3003 697 2906 
L 697 3450 
Q 1169 3672 1522 3987 
Q 1875 4303 2022 4600 
L 2384 4600 
L 2384 0 
z
" transform="scale(0.015625)"/>
       </defs>
       <use xlink:href="#ArialMT-31"/>
      </g>
     </g>
    </g>
    <g id="xtick_2">
     <g id="line2d_2">
      <path d="M 74.998219 273.312 
L 74.998219 7.2 
" clip-path="url(#paa70a0d7dc)" style="fill: none; stroke: #ffffff; stroke-linecap: round"/>
     </g>
     <g id="text_2">
      <!-- 2 -->
      <g style="fill: #262626" transform="translate(71.939703 290.685594) scale(0.11 -0.11)">
       <defs>
        <path id="ArialMT-32" d="M 3222 541 
L 3222 0 
L 194 0 
Q 188 203 259 391 
Q 375 700 629 1000 
Q 884 1300 1366 1694 
Q 2113 2306 2375 2664 
Q 2638 3022 2638 3341 
Q 2638 3675 2398 3904 
Q 2159 4134 1775 4134 
Q 1369 4134 1125 3890 
Q 881 3647 878 3216 
L 300 3275 
Q 359 3922 746 4261 
Q 1134 4600 1788 4600 
Q 2447 4600 2831 4234 
Q 3216 3869 3216 3328 
Q 3216 3053 3103 2787 
Q 2991 2522 2730 2228 
Q 2469 1934 1863 1422 
Q 1356 997 1212 845 
Q 1069 694 975 541 
L 3222 541 
z
" transform="scale(0.015625)"/>
       </defs>
       <use xlink:href="#ArialMT-32"/>
      </g>
     </g>
    </g>
    <g id="xtick_3">
     <g id="line2d_3">
      <path d="M 97.174219 273.312 
L 97.174219 7.2 
" clip-path="url(#paa70a0d7dc)" style="fill: none; stroke: #ffffff; stroke-linecap: round"/>
     </g>
     <g id="text_3">
      <!-- 3 -->
      <g style="fill: #262626" transform="translate(94.115703 290.685594) scale(0.11 -0.11)">
       <defs>
        <path id="ArialMT-33" d="M 269 1209 
L 831 1284 
Q 928 806 1161 595 
Q 1394 384 1728 384 
Q 2125 384 2398 659 
Q 2672 934 2672 1341 
Q 2672 1728 2419 1979 
Q 2166 2231 1775 2231 
Q 1616 2231 1378 2169 
L 1441 2663 
Q 1497 2656 1531 2656 
Q 1891 2656 2178 2843 
Q 2466 3031 2466 3422 
Q 2466 3731 2256 3934 
Q 2047 4138 1716 4138 
Q 1388 4138 1169 3931 
Q 950 3725 888 3313 
L 325 3413 
Q 428 3978 793 4289 
Q 1159 4600 1703 4600 
Q 2078 4600 2393 4439 
Q 2709 4278 2876 4000 
Q 3044 3722 3044 3409 
Q 3044 3113 2884 2869 
Q 2725 2625 2413 2481 
Q 2819 2388 3044 2092 
Q 3269 1797 3269 1353 
Q 3269 753 2831 336 
Q 2394 -81 1725 -81 
Q 1122 -81 723 278 
Q 325 638 269 1209 
z
" transform="scale(0.015625)"/>
       </defs>
       <use xlink:href="#ArialMT-33"/>
      </g>
     </g>
    </g>
    <g id="xtick_4">
     <g id="line2d_4">
      <path d="M 119.350219 273.312 
L 119.350219 7.2 
" clip-path="url(#paa70a0d7dc)" style="fill: none; stroke: #ffffff; stroke-linecap: round"/>
     </g>
     <g id="text_4">
      <!-- 4 -->
      <g style="fill: #262626" transform="translate(116.291703 290.685594) scale(0.11 -0.11)">
       <defs>
        <path id="ArialMT-34" d="M 2069 0 
L 2069 1097 
L 81 1097 
L 81 1613 
L 2172 4581 
L 2631 4581 
L 2631 1613 
L 3250 1613 
L 3250 1097 
L 2631 1097 
L 2631 0 
L 2069 0 
z
M 2069 1613 
L 2069 3678 
L 634 1613 
L 2069 1613 
z
" transform="scale(0.015625)"/>
       </defs>
       <use xlink:href="#ArialMT-34"/>
      </g>
     </g>
    </g>
    <g id="xtick_5">
     <g id="line2d_5">
      <path d="M 141.526219 273.312 
L 141.526219 7.2 
" clip-path="url(#paa70a0d7dc)" style="fill: none; stroke: #ffffff; stroke-linecap: round"/>
     </g>
     <g id="text_5">
      <!-- 5 -->
      <g style="fill: #262626" transform="translate(138.467703 290.685594) scale(0.11 -0.11)">
       <defs>
        <path id="ArialMT-35" d="M 266 1200 
L 856 1250 
Q 922 819 1161 601 
Q 1400 384 1738 384 
Q 2144 384 2425 690 
Q 2706 997 2706 1503 
Q 2706 1984 2436 2262 
Q 2166 2541 1728 2541 
Q 1456 2541 1237 2417 
Q 1019 2294 894 2097 
L 366 2166 
L 809 4519 
L 3088 4519 
L 3088 3981 
L 1259 3981 
L 1013 2750 
Q 1425 3038 1878 3038 
Q 2478 3038 2890 2622 
Q 3303 2206 3303 1553 
Q 3303 931 2941 478 
Q 2500 -78 1738 -78 
Q 1113 -78 717 272 
Q 322 622 266 1200 
z
" transform="scale(0.015625)"/>
       </defs>
       <use xlink:href="#ArialMT-35"/>
      </g>
     </g>
    </g>
    <g id="xtick_6">
     <g id="line2d_6">
      <path d="M 163.702219 273.312 
L 163.702219 7.2 
" clip-path="url(#paa70a0d7dc)" style="fill: none; stroke: #ffffff; stroke-linecap: round"/>
     </g>
     <g id="text_6">
      <!-- 6 -->
      <g style="fill: #262626" transform="translate(160.643703 290.685594) scale(0.11 -0.11)">
       <defs>
        <path id="ArialMT-36" d="M 3184 3459 
L 2625 3416 
Q 2550 3747 2413 3897 
Q 2184 4138 1850 4138 
Q 1581 4138 1378 3988 
Q 1113 3794 959 3422 
Q 806 3050 800 2363 
Q 1003 2672 1297 2822 
Q 1591 2972 1913 2972 
Q 2475 2972 2870 2558 
Q 3266 2144 3266 1488 
Q 3266 1056 3080 686 
Q 2894 316 2569 119 
Q 2244 -78 1831 -78 
Q 1128 -78 684 439 
Q 241 956 241 2144 
Q 241 3472 731 4075 
Q 1159 4600 1884 4600 
Q 2425 4600 2770 4297 
Q 3116 3994 3184 3459 
z
M 888 1484 
Q 888 1194 1011 928 
Q 1134 663 1356 523 
Q 1578 384 1822 384 
Q 2178 384 2434 671 
Q 2691 959 2691 1453 
Q 2691 1928 2437 2201 
Q 2184 2475 1800 2475 
Q 1419 2475 1153 2201 
Q 888 1928 888 1484 
z
" transform="scale(0.015625)"/>
       </defs>
       <use xlink:href="#ArialMT-36"/>
      </g>
     </g>
    </g>
    <g id="xtick_7">
     <g id="line2d_7">
      <path d="M 185.878219 273.312 
L 185.878219 7.2 
" clip-path="url(#paa70a0d7dc)" style="fill: none; stroke: #ffffff; stroke-linecap: round"/>
     </g>
     <g id="text_7">
      <!-- 7 -->
      <g style="fill: #262626" transform="translate(182.819703 290.685594) scale(0.11 -0.11)">
       <defs>
        <path id="ArialMT-37" d="M 303 3981 
L 303 4522 
L 3269 4522 
L 3269 4084 
Q 2831 3619 2401 2847 
Q 1972 2075 1738 1259 
Q 1569 684 1522 0 
L 944 0 
Q 953 541 1156 1306 
Q 1359 2072 1739 2783 
Q 2119 3494 2547 3981 
L 303 3981 
z
" transform="scale(0.015625)"/>
       </defs>
       <use xlink:href="#ArialMT-37"/>
      </g>
     </g>
    </g>
    <g id="xtick_8">
     <g id="line2d_8">
      <path d="M 208.054219 273.312 
L 208.054219 7.2 
" clip-path="url(#paa70a0d7dc)" style="fill: none; stroke: #ffffff; stroke-linecap: round"/>
     </g>
     <g id="text_8">
      <!-- 8 -->
      <g style="fill: #262626" transform="translate(204.995703 290.685594) scale(0.11 -0.11)">
       <defs>
        <path id="ArialMT-38" d="M 1131 2484 
Q 781 2613 612 2850 
Q 444 3088 444 3419 
Q 444 3919 803 4259 
Q 1163 4600 1759 4600 
Q 2359 4600 2725 4251 
Q 3091 3903 3091 3403 
Q 3091 3084 2923 2848 
Q 2756 2613 2416 2484 
Q 2838 2347 3058 2040 
Q 3278 1734 3278 1309 
Q 3278 722 2862 322 
Q 2447 -78 1769 -78 
Q 1091 -78 675 323 
Q 259 725 259 1325 
Q 259 1772 486 2073 
Q 713 2375 1131 2484 
z
M 1019 3438 
Q 1019 3113 1228 2906 
Q 1438 2700 1772 2700 
Q 2097 2700 2305 2904 
Q 2513 3109 2513 3406 
Q 2513 3716 2298 3927 
Q 2084 4138 1766 4138 
Q 1444 4138 1231 3931 
Q 1019 3725 1019 3438 
z
M 838 1322 
Q 838 1081 952 856 
Q 1066 631 1291 507 
Q 1516 384 1775 384 
Q 2178 384 2440 643 
Q 2703 903 2703 1303 
Q 2703 1709 2433 1975 
Q 2163 2241 1756 2241 
Q 1359 2241 1098 1978 
Q 838 1716 838 1322 
z
" transform="scale(0.015625)"/>
       </defs>
       <use xlink:href="#ArialMT-38"/>
      </g>
     </g>
    </g>
    <g id="xtick_9">
     <g id="line2d_9">
      <path d="M 230.230219 273.312 
L 230.230219 7.2 
" clip-path="url(#paa70a0d7dc)" style="fill: none; stroke: #ffffff; stroke-linecap: round"/>
     </g>
     <g id="text_9">
      <!-- 9 -->
      <g style="fill: #262626" transform="translate(227.171703 290.685594) scale(0.11 -0.11)">
       <defs>
        <path id="ArialMT-39" d="M 350 1059 
L 891 1109 
Q 959 728 1153 556 
Q 1347 384 1650 384 
Q 1909 384 2104 503 
Q 2300 622 2425 820 
Q 2550 1019 2634 1356 
Q 2719 1694 2719 2044 
Q 2719 2081 2716 2156 
Q 2547 1888 2255 1720 
Q 1963 1553 1622 1553 
Q 1053 1553 659 1965 
Q 266 2378 266 3053 
Q 266 3750 677 4175 
Q 1088 4600 1706 4600 
Q 2153 4600 2523 4359 
Q 2894 4119 3086 3673 
Q 3278 3228 3278 2384 
Q 3278 1506 3087 986 
Q 2897 466 2520 194 
Q 2144 -78 1638 -78 
Q 1100 -78 759 220 
Q 419 519 350 1059 
z
M 2653 3081 
Q 2653 3566 2395 3850 
Q 2138 4134 1775 4134 
Q 1400 4134 1122 3828 
Q 844 3522 844 3034 
Q 844 2597 1108 2323 
Q 1372 2050 1759 2050 
Q 2150 2050 2401 2323 
Q 2653 2597 2653 3081 
z
" transform="scale(0.015625)"/>
       </defs>
       <use xlink:href="#ArialMT-39"/>
      </g>
     </g>
    </g>
    <g id="xtick_10">
     <g id="line2d_10">
      <path d="M 252.406219 273.312 
L 252.406219 7.2 
" clip-path="url(#paa70a0d7dc)" style="fill: none; stroke: #ffffff; stroke-linecap: round"/>
     </g>
     <g id="text_10">
      <!-- 10 -->
      <g style="fill: #262626" transform="translate(246.289187 290.685594) scale(0.11 -0.11)">
       <defs>
        <path id="ArialMT-30" d="M 266 2259 
Q 266 3072 433 3567 
Q 600 4063 929 4331 
Q 1259 4600 1759 4600 
Q 2128 4600 2406 4451 
Q 2684 4303 2865 4023 
Q 3047 3744 3150 3342 
Q 3253 2941 3253 2259 
Q 3253 1453 3087 958 
Q 2922 463 2592 192 
Q 2263 -78 1759 -78 
Q 1097 -78 719 397 
Q 266 969 266 2259 
z
M 844 2259 
Q 844 1131 1108 757 
Q 1372 384 1759 384 
Q 2147 384 2411 759 
Q 2675 1134 2675 2259 
Q 2675 3391 2411 3762 
Q 2147 4134 1753 4134 
Q 1366 4134 1134 3806 
Q 844 3388 844 2259 
z
" transform="scale(0.015625)"/>
       </defs>
       <use xlink:href="#ArialMT-31"/>
       <use xlink:href="#ArialMT-30" transform="translate(55.615234 0)"/>
      </g>
     </g>
    </g>
    <g id="xtick_11">
     <g id="line2d_11">
      <path d="M 274.582219 273.312 
L 274.582219 7.2 
" clip-path="url(#paa70a0d7dc)" style="fill: none; stroke: #ffffff; stroke-linecap: round"/>
     </g>
     <g id="text_11">
      <!-- 11 -->
      <g style="fill: #262626" transform="translate(268.870812 290.685594) scale(0.11 -0.11)">
       <use xlink:href="#ArialMT-31"/>
       <use xlink:href="#ArialMT-31" transform="translate(48.240234 0)"/>
      </g>
     </g>
    </g>
    <g id="xtick_12">
     <g id="line2d_12">
      <path d="M 296.758219 273.312 
L 296.758219 7.2 
" clip-path="url(#paa70a0d7dc)" style="fill: none; stroke: #ffffff; stroke-linecap: round"/>
     </g>
     <g id="text_12">
      <!-- 12 -->
      <g style="fill: #262626" transform="translate(290.641187 290.685594) scale(0.11 -0.11)">
       <use xlink:href="#ArialMT-31"/>
       <use xlink:href="#ArialMT-32" transform="translate(55.615234 0)"/>
      </g>
     </g>
    </g>
    <g id="text_13">
     <!-- true label -->
     <g style="fill: #262626" transform="translate(150.109594 305.461219) scale(0.12 -0.12)">
      <defs>
       <path id="ArialMT-74" d="M 1650 503 
L 1731 6 
Q 1494 -44 1306 -44 
Q 1000 -44 831 53 
Q 663 150 594 308 
Q 525 466 525 972 
L 525 2881 
L 113 2881 
L 113 3319 
L 525 3319 
L 525 4141 
L 1084 4478 
L 1084 3319 
L 1650 3319 
L 1650 2881 
L 1084 2881 
L 1084 941 
Q 1084 700 1114 631 
Q 1144 563 1211 522 
Q 1278 481 1403 481 
Q 1497 481 1650 503 
z
" transform="scale(0.015625)"/>
       <path id="ArialMT-72" d="M 416 0 
L 416 3319 
L 922 3319 
L 922 2816 
Q 1116 3169 1280 3281 
Q 1444 3394 1641 3394 
Q 1925 3394 2219 3213 
L 2025 2691 
Q 1819 2813 1613 2813 
Q 1428 2813 1281 2702 
Q 1134 2591 1072 2394 
Q 978 2094 978 1738 
L 978 0 
L 416 0 
z
" transform="scale(0.015625)"/>
       <path id="ArialMT-75" d="M 2597 0 
L 2597 488 
Q 2209 -75 1544 -75 
Q 1250 -75 995 37 
Q 741 150 617 320 
Q 494 491 444 738 
Q 409 903 409 1263 
L 409 3319 
L 972 3319 
L 972 1478 
Q 972 1038 1006 884 
Q 1059 663 1231 536 
Q 1403 409 1656 409 
Q 1909 409 2131 539 
Q 2353 669 2445 892 
Q 2538 1116 2538 1541 
L 2538 3319 
L 3100 3319 
L 3100 0 
L 2597 0 
z
" transform="scale(0.015625)"/>
       <path id="ArialMT-65" d="M 2694 1069 
L 3275 997 
Q 3138 488 2766 206 
Q 2394 -75 1816 -75 
Q 1088 -75 661 373 
Q 234 822 234 1631 
Q 234 2469 665 2931 
Q 1097 3394 1784 3394 
Q 2450 3394 2872 2941 
Q 3294 2488 3294 1666 
Q 3294 1616 3291 1516 
L 816 1516 
Q 847 969 1125 678 
Q 1403 388 1819 388 
Q 2128 388 2347 550 
Q 2566 713 2694 1069 
z
M 847 1978 
L 2700 1978 
Q 2663 2397 2488 2606 
Q 2219 2931 1791 2931 
Q 1403 2931 1139 2672 
Q 875 2413 847 1978 
z
" transform="scale(0.015625)"/>
       <path id="ArialMT-20" transform="scale(0.015625)"/>
       <path id="ArialMT-6c" d="M 409 0 
L 409 4581 
L 972 4581 
L 972 0 
L 409 0 
z
" transform="scale(0.015625)"/>
       <path id="ArialMT-61" d="M 2588 409 
Q 2275 144 1986 34 
Q 1697 -75 1366 -75 
Q 819 -75 525 192 
Q 231 459 231 875 
Q 231 1119 342 1320 
Q 453 1522 633 1644 
Q 813 1766 1038 1828 
Q 1203 1872 1538 1913 
Q 2219 1994 2541 2106 
Q 2544 2222 2544 2253 
Q 2544 2597 2384 2738 
Q 2169 2928 1744 2928 
Q 1347 2928 1158 2789 
Q 969 2650 878 2297 
L 328 2372 
Q 403 2725 575 2942 
Q 747 3159 1072 3276 
Q 1397 3394 1825 3394 
Q 2250 3394 2515 3294 
Q 2781 3194 2906 3042 
Q 3031 2891 3081 2659 
Q 3109 2516 3109 2141 
L 3109 1391 
Q 3109 606 3145 398 
Q 3181 191 3288 0 
L 2700 0 
Q 2613 175 2588 409 
z
M 2541 1666 
Q 2234 1541 1622 1453 
Q 1275 1403 1131 1340 
Q 988 1278 909 1158 
Q 831 1038 831 891 
Q 831 666 1001 516 
Q 1172 366 1500 366 
Q 1825 366 2078 508 
Q 2331 650 2450 897 
Q 2541 1088 2541 1459 
L 2541 1666 
z
" transform="scale(0.015625)"/>
       <path id="ArialMT-62" d="M 941 0 
L 419 0 
L 419 4581 
L 981 4581 
L 981 2947 
Q 1338 3394 1891 3394 
Q 2197 3394 2470 3270 
Q 2744 3147 2920 2923 
Q 3097 2700 3197 2384 
Q 3297 2069 3297 1709 
Q 3297 856 2875 390 
Q 2453 -75 1863 -75 
Q 1275 -75 941 416 
L 941 0 
z
M 934 1684 
Q 934 1088 1097 822 
Q 1363 388 1816 388 
Q 2184 388 2453 708 
Q 2722 1028 2722 1663 
Q 2722 2313 2464 2622 
Q 2206 2931 1841 2931 
Q 1472 2931 1203 2611 
Q 934 2291 934 1684 
z
" transform="scale(0.015625)"/>
      </defs>
      <use xlink:href="#ArialMT-74"/>
      <use xlink:href="#ArialMT-72" transform="translate(27.783203 0)"/>
      <use xlink:href="#ArialMT-75" transform="translate(61.083984 0)"/>
      <use xlink:href="#ArialMT-65" transform="translate(116.699219 0)"/>
      <use xlink:href="#ArialMT-20" transform="translate(172.314453 0)"/>
      <use xlink:href="#ArialMT-6c" transform="translate(200.097656 0)"/>
      <use xlink:href="#ArialMT-61" transform="translate(222.314453 0)"/>
      <use xlink:href="#ArialMT-62" transform="translate(277.929688 0)"/>
      <use xlink:href="#ArialMT-65" transform="translate(333.544922 0)"/>
      <use xlink:href="#ArialMT-6c" transform="translate(389.160156 0)"/>
     </g>
    </g>
   </g>
   <g id="matplotlib.axis_2">
    <g id="ytick_1">
     <g id="line2d_13">
      <path d="M 41.734219 18.288 
L 307.846219 18.288 
" clip-path="url(#paa70a0d7dc)" style="fill: none; stroke: #ffffff; stroke-linecap: round"/>
     </g>
     <g id="text_14">
      <!-- 1 -->
      <g style="fill: #262626" transform="translate(30.047969 21.346516) rotate(-90) scale(0.11 -0.11)">
       <use xlink:href="#ArialMT-31"/>
      </g>
     </g>
    </g>
    <g id="ytick_2">
     <g id="line2d_14">
      <path d="M 41.734219 40.464 
L 307.846219 40.464 
" clip-path="url(#paa70a0d7dc)" style="fill: none; stroke: #ffffff; stroke-linecap: round"/>
     </g>
     <g id="text_15">
      <!-- 2 -->
      <g style="fill: #262626" transform="translate(30.047969 43.522516) rotate(-90) scale(0.11 -0.11)">
       <use xlink:href="#ArialMT-32"/>
      </g>
     </g>
    </g>
    <g id="ytick_3">
     <g id="line2d_15">
      <path d="M 41.734219 62.64 
L 307.846219 62.64 
" clip-path="url(#paa70a0d7dc)" style="fill: none; stroke: #ffffff; stroke-linecap: round"/>
     </g>
     <g id="text_16">
      <!-- 3 -->
      <g style="fill: #262626" transform="translate(30.047969 65.698516) rotate(-90) scale(0.11 -0.11)">
       <use xlink:href="#ArialMT-33"/>
      </g>
     </g>
    </g>
    <g id="ytick_4">
     <g id="line2d_16">
      <path d="M 41.734219 84.816 
L 307.846219 84.816 
" clip-path="url(#paa70a0d7dc)" style="fill: none; stroke: #ffffff; stroke-linecap: round"/>
     </g>
     <g id="text_17">
      <!-- 4 -->
      <g style="fill: #262626" transform="translate(30.047969 87.874516) rotate(-90) scale(0.11 -0.11)">
       <use xlink:href="#ArialMT-34"/>
      </g>
     </g>
    </g>
    <g id="ytick_5">
     <g id="line2d_17">
      <path d="M 41.734219 106.992 
L 307.846219 106.992 
" clip-path="url(#paa70a0d7dc)" style="fill: none; stroke: #ffffff; stroke-linecap: round"/>
     </g>
     <g id="text_18">
      <!-- 5 -->
      <g style="fill: #262626" transform="translate(30.047969 110.050516) rotate(-90) scale(0.11 -0.11)">
       <use xlink:href="#ArialMT-35"/>
      </g>
     </g>
    </g>
    <g id="ytick_6">
     <g id="line2d_18">
      <path d="M 41.734219 129.168 
L 307.846219 129.168 
" clip-path="url(#paa70a0d7dc)" style="fill: none; stroke: #ffffff; stroke-linecap: round"/>
     </g>
     <g id="text_19">
      <!-- 6 -->
      <g style="fill: #262626" transform="translate(30.047969 132.226516) rotate(-90) scale(0.11 -0.11)">
       <use xlink:href="#ArialMT-36"/>
      </g>
     </g>
    </g>
    <g id="ytick_7">
     <g id="line2d_19">
      <path d="M 41.734219 151.344 
L 307.846219 151.344 
" clip-path="url(#paa70a0d7dc)" style="fill: none; stroke: #ffffff; stroke-linecap: round"/>
     </g>
     <g id="text_20">
      <!-- 7 -->
      <g style="fill: #262626" transform="translate(30.047969 154.402516) rotate(-90) scale(0.11 -0.11)">
       <use xlink:href="#ArialMT-37"/>
      </g>
     </g>
    </g>
    <g id="ytick_8">
     <g id="line2d_20">
      <path d="M 41.734219 173.52 
L 307.846219 173.52 
" clip-path="url(#paa70a0d7dc)" style="fill: none; stroke: #ffffff; stroke-linecap: round"/>
     </g>
     <g id="text_21">
      <!-- 8 -->
      <g style="fill: #262626" transform="translate(30.047969 176.578516) rotate(-90) scale(0.11 -0.11)">
       <use xlink:href="#ArialMT-38"/>
      </g>
     </g>
    </g>
    <g id="ytick_9">
     <g id="line2d_21">
      <path d="M 41.734219 195.696 
L 307.846219 195.696 
" clip-path="url(#paa70a0d7dc)" style="fill: none; stroke: #ffffff; stroke-linecap: round"/>
     </g>
     <g id="text_22">
      <!-- 9 -->
      <g style="fill: #262626" transform="translate(30.047969 198.754516) rotate(-90) scale(0.11 -0.11)">
       <use xlink:href="#ArialMT-39"/>
      </g>
     </g>
    </g>
    <g id="ytick_10">
     <g id="line2d_22">
      <path d="M 41.734219 217.872 
L 307.846219 217.872 
" clip-path="url(#paa70a0d7dc)" style="fill: none; stroke: #ffffff; stroke-linecap: round"/>
     </g>
     <g id="text_23">
      <!-- 10 -->
      <g style="fill: #262626" transform="translate(30.047969 223.989031) rotate(-90) scale(0.11 -0.11)">
       <use xlink:href="#ArialMT-31"/>
       <use xlink:href="#ArialMT-30" transform="translate(55.615234 0)"/>
      </g>
     </g>
    </g>
    <g id="ytick_11">
     <g id="line2d_23">
      <path d="M 41.734219 240.048 
L 307.846219 240.048 
" clip-path="url(#paa70a0d7dc)" style="fill: none; stroke: #ffffff; stroke-linecap: round"/>
     </g>
     <g id="text_24">
      <!-- 11 -->
      <g style="fill: #262626" transform="translate(30.047969 245.759406) rotate(-90) scale(0.11 -0.11)">
       <use xlink:href="#ArialMT-31"/>
       <use xlink:href="#ArialMT-31" transform="translate(48.240234 0)"/>
      </g>
     </g>
    </g>
    <g id="ytick_12">
     <g id="line2d_24">
      <path d="M 41.734219 262.224 
L 307.846219 262.224 
" clip-path="url(#paa70a0d7dc)" style="fill: none; stroke: #ffffff; stroke-linecap: round"/>
     </g>
     <g id="text_25">
      <!-- 12 -->
      <g style="fill: #262626" transform="translate(30.047969 268.341031) rotate(-90) scale(0.11 -0.11)">
       <use xlink:href="#ArialMT-31"/>
       <use xlink:href="#ArialMT-32" transform="translate(55.615234 0)"/>
      </g>
     </g>
    </g>
    <g id="text_26">
     <!-- predicted label -->
     <g style="fill: #262626" transform="translate(15.789375 179.279438) rotate(-90) scale(0.12 -0.12)">
      <defs>
       <path id="ArialMT-70" d="M 422 -1272 
L 422 3319 
L 934 3319 
L 934 2888 
Q 1116 3141 1344 3267 
Q 1572 3394 1897 3394 
Q 2322 3394 2647 3175 
Q 2972 2956 3137 2557 
Q 3303 2159 3303 1684 
Q 3303 1175 3120 767 
Q 2938 359 2589 142 
Q 2241 -75 1856 -75 
Q 1575 -75 1351 44 
Q 1128 163 984 344 
L 984 -1272 
L 422 -1272 
z
M 931 1641 
Q 931 1000 1190 694 
Q 1450 388 1819 388 
Q 2194 388 2461 705 
Q 2728 1022 2728 1688 
Q 2728 2322 2467 2637 
Q 2206 2953 1844 2953 
Q 1484 2953 1207 2617 
Q 931 2281 931 1641 
z
" transform="scale(0.015625)"/>
       <path id="ArialMT-64" d="M 2575 0 
L 2575 419 
Q 2259 -75 1647 -75 
Q 1250 -75 917 144 
Q 584 363 401 755 
Q 219 1147 219 1656 
Q 219 2153 384 2558 
Q 550 2963 881 3178 
Q 1213 3394 1622 3394 
Q 1922 3394 2156 3267 
Q 2391 3141 2538 2938 
L 2538 4581 
L 3097 4581 
L 3097 0 
L 2575 0 
z
M 797 1656 
Q 797 1019 1065 703 
Q 1334 388 1700 388 
Q 2069 388 2326 689 
Q 2584 991 2584 1609 
Q 2584 2291 2321 2609 
Q 2059 2928 1675 2928 
Q 1300 2928 1048 2622 
Q 797 2316 797 1656 
z
" transform="scale(0.015625)"/>
       <path id="ArialMT-69" d="M 425 3934 
L 425 4581 
L 988 4581 
L 988 3934 
L 425 3934 
z
M 425 0 
L 425 3319 
L 988 3319 
L 988 0 
L 425 0 
z
" transform="scale(0.015625)"/>
       <path id="ArialMT-63" d="M 2588 1216 
L 3141 1144 
Q 3050 572 2676 248 
Q 2303 -75 1759 -75 
Q 1078 -75 664 370 
Q 250 816 250 1647 
Q 250 2184 428 2587 
Q 606 2991 970 3192 
Q 1334 3394 1763 3394 
Q 2303 3394 2647 3120 
Q 2991 2847 3088 2344 
L 2541 2259 
Q 2463 2594 2264 2762 
Q 2066 2931 1784 2931 
Q 1359 2931 1093 2626 
Q 828 2322 828 1663 
Q 828 994 1084 691 
Q 1341 388 1753 388 
Q 2084 388 2306 591 
Q 2528 794 2588 1216 
z
" transform="scale(0.015625)"/>
      </defs>
      <use xlink:href="#ArialMT-70"/>
      <use xlink:href="#ArialMT-72" transform="translate(55.615234 0)"/>
      <use xlink:href="#ArialMT-65" transform="translate(88.916016 0)"/>
      <use xlink:href="#ArialMT-64" transform="translate(144.53125 0)"/>
      <use xlink:href="#ArialMT-69" transform="translate(200.146484 0)"/>
      <use xlink:href="#ArialMT-63" transform="translate(222.363281 0)"/>
      <use xlink:href="#ArialMT-74" transform="translate(272.363281 0)"/>
      <use xlink:href="#ArialMT-65" transform="translate(300.146484 0)"/>
      <use xlink:href="#ArialMT-64" transform="translate(355.761719 0)"/>
      <use xlink:href="#ArialMT-20" transform="translate(411.376953 0)"/>
      <use xlink:href="#ArialMT-6c" transform="translate(439.160156 0)"/>
      <use xlink:href="#ArialMT-61" transform="translate(461.376953 0)"/>
      <use xlink:href="#ArialMT-62" transform="translate(516.992188 0)"/>
      <use xlink:href="#ArialMT-65" transform="translate(572.607422 0)"/>
      <use xlink:href="#ArialMT-6c" transform="translate(628.222656 0)"/>
     </g>
    </g>
   </g>
   <g id="QuadMesh_1">
    <path d="M 41.734219 7.2 
L 63.910219 7.2 
L 63.910219 29.376 
L 41.734219 29.376 
L 41.734219 7.2 
" clip-path="url(#paa70a0d7dc)" style="fill: #f37852"/>
    <path d="M 63.910219 7.2 
L 86.086219 7.2 
L 86.086219 29.376 
L 63.910219 29.376 
L 63.910219 7.2 
" clip-path="url(#paa70a0d7dc)" style="fill: #241432"/>
    <path d="M 86.086219 7.2 
L 108.262219 7.2 
L 108.262219 29.376 
L 86.086219 29.376 
L 86.086219 7.2 
" clip-path="url(#paa70a0d7dc)" style="fill: #0b0920"/>
    <path d="M 108.262219 7.2 
L 130.438219 7.2 
L 130.438219 29.376 
L 108.262219 29.376 
L 108.262219 7.2 
" clip-path="url(#paa70a0d7dc)" style="fill: #03051a"/>
    <path d="M 130.438219 7.2 
L 152.614219 7.2 
L 152.614219 29.376 
L 130.438219 29.376 
L 130.438219 7.2 
" clip-path="url(#paa70a0d7dc)" style="fill: #03051a"/>
    <path d="M 152.614219 7.2 
L 174.790219 7.2 
L 174.790219 29.376 
L 152.614219 29.376 
L 152.614219 7.2 
" clip-path="url(#paa70a0d7dc)" style="fill: #03051a"/>
    <path d="M 174.790219 7.2 
L 196.966219 7.2 
L 196.966219 29.376 
L 174.790219 29.376 
L 174.790219 7.2 
" clip-path="url(#paa70a0d7dc)" style="fill: #03051a"/>
    <path d="M 196.966219 7.2 
L 219.142219 7.2 
L 219.142219 29.376 
L 196.966219 29.376 
L 196.966219 7.2 
" clip-path="url(#paa70a0d7dc)" style="fill: #03051a"/>
    <path d="M 219.142219 7.2 
L 241.318219 7.2 
L 241.318219 29.376 
L 219.142219 29.376 
L 219.142219 7.2 
" clip-path="url(#paa70a0d7dc)" style="fill: #03051a"/>
    <path d="M 241.318219 7.2 
L 263.494219 7.2 
L 263.494219 29.376 
L 241.318219 29.376 
L 241.318219 7.2 
" clip-path="url(#paa70a0d7dc)" style="fill: #03051a"/>
    <path d="M 263.494219 7.2 
L 285.670219 7.2 
L 285.670219 29.376 
L 263.494219 29.376 
L 263.494219 7.2 
" clip-path="url(#paa70a0d7dc)" style="fill: #07071d"/>
    <path d="M 285.670219 7.2 
L 307.846219 7.2 
L 307.846219 29.376 
L 285.670219 29.376 
L 285.670219 7.2 
" clip-path="url(#paa70a0d7dc)" style="fill: #0b0920"/>
    <path d="M 41.734219 29.376 
L 63.910219 29.376 
L 63.910219 51.552 
L 41.734219 51.552 
L 41.734219 29.376 
" clip-path="url(#paa70a0d7dc)" style="fill: #271534"/>
    <path d="M 63.910219 29.376 
L 86.086219 29.376 
L 86.086219 51.552 
L 63.910219 51.552 
L 63.910219 29.376 
" clip-path="url(#paa70a0d7dc)" style="fill: #f4845d"/>
    <path d="M 86.086219 29.376 
L 108.262219 29.376 
L 108.262219 51.552 
L 86.086219 51.552 
L 86.086219 29.376 
" clip-path="url(#paa70a0d7dc)" style="fill: #531e4d"/>
    <path d="M 108.262219 29.376 
L 130.438219 29.376 
L 130.438219 51.552 
L 108.262219 51.552 
L 108.262219 29.376 
" clip-path="url(#paa70a0d7dc)" style="fill: #05061b"/>
    <path d="M 130.438219 29.376 
L 152.614219 29.376 
L 152.614219 51.552 
L 130.438219 51.552 
L 130.438219 29.376 
" clip-path="url(#paa70a0d7dc)" style="fill: #03051a"/>
    <path d="M 152.614219 29.376 
L 174.790219 29.376 
L 174.790219 51.552 
L 152.614219 51.552 
L 152.614219 29.376 
" clip-path="url(#paa70a0d7dc)" style="fill: #03051a"/>
    <path d="M 174.790219 29.376 
L 196.966219 29.376 
L 196.966219 51.552 
L 174.790219 51.552 
L 174.790219 29.376 
" clip-path="url(#paa70a0d7dc)" style="fill: #03051a"/>
    <path d="M 196.966219 29.376 
L 219.142219 29.376 
L 219.142219 51.552 
L 196.966219 51.552 
L 196.966219 29.376 
" clip-path="url(#paa70a0d7dc)" style="fill: #03051a"/>
    <path d="M 219.142219 29.376 
L 241.318219 29.376 
L 241.318219 51.552 
L 219.142219 51.552 
L 219.142219 29.376 
" clip-path="url(#paa70a0d7dc)" style="fill: #03051a"/>
    <path d="M 241.318219 29.376 
L 263.494219 29.376 
L 263.494219 51.552 
L 241.318219 51.552 
L 241.318219 29.376 
" clip-path="url(#paa70a0d7dc)" style="fill: #05061b"/>
    <path d="M 263.494219 29.376 
L 285.670219 29.376 
L 285.670219 51.552 
L 263.494219 51.552 
L 263.494219 29.376 
" clip-path="url(#paa70a0d7dc)" style="fill: #431c46"/>
    <path d="M 285.670219 29.376 
L 307.846219 29.376 
L 307.846219 51.552 
L 285.670219 51.552 
L 285.670219 29.376 
" clip-path="url(#paa70a0d7dc)" style="fill: #661f54"/>
    <path d="M 41.734219 51.552 
L 63.910219 51.552 
L 63.910219 73.728 
L 41.734219 73.728 
L 41.734219 51.552 
" clip-path="url(#paa70a0d7dc)" style="fill: #03051a"/>
    <path d="M 63.910219 51.552 
L 86.086219 51.552 
L 86.086219 73.728 
L 63.910219 73.728 
L 63.910219 51.552 
" clip-path="url(#paa70a0d7dc)" style="fill: #31183b"/>
    <path d="M 86.086219 51.552 
L 108.262219 51.552 
L 108.262219 73.728 
L 86.086219 73.728 
L 86.086219 51.552 
" clip-path="url(#paa70a0d7dc)" style="fill: #f37852"/>
    <path d="M 108.262219 51.552 
L 130.438219 51.552 
L 130.438219 73.728 
L 108.262219 73.728 
L 108.262219 51.552 
" clip-path="url(#paa70a0d7dc)" style="fill: #761f58"/>
    <path d="M 130.438219 51.552 
L 152.614219 51.552 
L 152.614219 73.728 
L 130.438219 73.728 
L 130.438219 51.552 
" clip-path="url(#paa70a0d7dc)" style="fill: #130d25"/>
    <path d="M 152.614219 51.552 
L 174.790219 51.552 
L 174.790219 73.728 
L 152.614219 73.728 
L 152.614219 51.552 
" clip-path="url(#paa70a0d7dc)" style="fill: #03051a"/>
    <path d="M 174.790219 51.552 
L 196.966219 51.552 
L 196.966219 73.728 
L 174.790219 73.728 
L 174.790219 51.552 
" clip-path="url(#paa70a0d7dc)" style="fill: #03051a"/>
    <path d="M 196.966219 51.552 
L 219.142219 51.552 
L 219.142219 73.728 
L 196.966219 73.728 
L 196.966219 51.552 
" clip-path="url(#paa70a0d7dc)" style="fill: #03051a"/>
    <path d="M 219.142219 51.552 
L 241.318219 51.552 
L 241.318219 73.728 
L 219.142219 73.728 
L 219.142219 51.552 
" clip-path="url(#paa70a0d7dc)" style="fill: #07071d"/>
    <path d="M 241.318219 51.552 
L 263.494219 51.552 
L 263.494219 73.728 
L 241.318219 73.728 
L 241.318219 51.552 
" clip-path="url(#paa70a0d7dc)" style="fill: #35193e"/>
    <path d="M 263.494219 51.552 
L 285.670219 51.552 
L 285.670219 73.728 
L 263.494219 73.728 
L 263.494219 51.552 
" clip-path="url(#paa70a0d7dc)" style="fill: #20122e"/>
    <path d="M 285.670219 51.552 
L 307.846219 51.552 
L 307.846219 73.728 
L 285.670219 73.728 
L 285.670219 51.552 
" clip-path="url(#paa70a0d7dc)" style="fill: #07071d"/>
    <path d="M 41.734219 73.728 
L 63.910219 73.728 
L 63.910219 95.904 
L 41.734219 95.904 
L 41.734219 73.728 
" clip-path="url(#paa70a0d7dc)" style="fill: #03051a"/>
    <path d="M 63.910219 73.728 
L 86.086219 73.728 
L 86.086219 95.904 
L 63.910219 95.904 
L 63.910219 73.728 
" clip-path="url(#paa70a0d7dc)" style="fill: #03051a"/>
    <path d="M 86.086219 73.728 
L 108.262219 73.728 
L 108.262219 95.904 
L 86.086219 95.904 
L 86.086219 73.728 
" clip-path="url(#paa70a0d7dc)" style="fill: #4b1d4a"/>
    <path d="M 108.262219 73.728 
L 130.438219 73.728 
L 130.438219 95.904 
L 108.262219 95.904 
L 108.262219 73.728 
" clip-path="url(#paa70a0d7dc)" style="fill: #f58d64"/>
    <path d="M 130.438219 73.728 
L 152.614219 73.728 
L 152.614219 95.904 
L 130.438219 95.904 
L 130.438219 73.728 
" clip-path="url(#paa70a0d7dc)" style="fill: #7a1f59"/>
    <path d="M 152.614219 73.728 
L 174.790219 73.728 
L 174.790219 95.904 
L 152.614219 95.904 
L 152.614219 73.728 
" clip-path="url(#paa70a0d7dc)" style="fill: #03051a"/>
    <path d="M 174.790219 73.728 
L 196.966219 73.728 
L 196.966219 95.904 
L 174.790219 95.904 
L 174.790219 73.728 
" clip-path="url(#paa70a0d7dc)" style="fill: #03051a"/>
    <path d="M 196.966219 73.728 
L 219.142219 73.728 
L 219.142219 95.904 
L 196.966219 95.904 
L 196.966219 73.728 
" clip-path="url(#paa70a0d7dc)" style="fill: #03051a"/>
    <path d="M 219.142219 73.728 
L 241.318219 73.728 
L 241.318219 95.904 
L 219.142219 95.904 
L 219.142219 73.728 
" clip-path="url(#paa70a0d7dc)" style="fill: #07071d"/>
    <path d="M 241.318219 73.728 
L 263.494219 73.728 
L 263.494219 95.904 
L 241.318219 95.904 
L 241.318219 73.728 
" clip-path="url(#paa70a0d7dc)" style="fill: #2a1636"/>
    <path d="M 263.494219 73.728 
L 285.670219 73.728 
L 285.670219 95.904 
L 263.494219 95.904 
L 263.494219 73.728 
" clip-path="url(#paa70a0d7dc)" style="fill: #07071d"/>
    <path d="M 285.670219 73.728 
L 307.846219 73.728 
L 307.846219 95.904 
L 285.670219 95.904 
L 285.670219 73.728 
" clip-path="url(#paa70a0d7dc)" style="fill: #03051a"/>
    <path d="M 41.734219 95.904 
L 63.910219 95.904 
L 63.910219 118.08 
L 41.734219 118.08 
L 41.734219 95.904 
" clip-path="url(#paa70a0d7dc)" style="fill: #03051a"/>
    <path d="M 63.910219 95.904 
L 86.086219 95.904 
L 86.086219 118.08 
L 63.910219 118.08 
L 63.910219 95.904 
" clip-path="url(#paa70a0d7dc)" style="fill: #03051a"/>
    <path d="M 86.086219 95.904 
L 108.262219 95.904 
L 108.262219 118.08 
L 86.086219 118.08 
L 86.086219 95.904 
" clip-path="url(#paa70a0d7dc)" style="fill: #03051a"/>
    <path d="M 108.262219 95.904 
L 130.438219 95.904 
L 130.438219 118.08 
L 108.262219 118.08 
L 108.262219 95.904 
" clip-path="url(#paa70a0d7dc)" style="fill: #661f54"/>
    <path d="M 130.438219 95.904 
L 152.614219 95.904 
L 152.614219 118.08 
L 130.438219 118.08 
L 130.438219 95.904 
" clip-path="url(#paa70a0d7dc)" style="fill: #d5224a"/>
    <path d="M 152.614219 95.904 
L 174.790219 95.904 
L 174.790219 118.08 
L 152.614219 118.08 
L 152.614219 95.904 
" clip-path="url(#paa70a0d7dc)" style="fill: #761f58"/>
    <path d="M 174.790219 95.904 
L 196.966219 95.904 
L 196.966219 118.08 
L 174.790219 118.08 
L 174.790219 95.904 
" clip-path="url(#paa70a0d7dc)" style="fill: #03051a"/>
    <path d="M 196.966219 95.904 
L 219.142219 95.904 
L 219.142219 118.08 
L 196.966219 118.08 
L 196.966219 95.904 
" clip-path="url(#paa70a0d7dc)" style="fill: #0e0b22"/>
    <path d="M 219.142219 95.904 
L 241.318219 95.904 
L 241.318219 118.08 
L 219.142219 118.08 
L 219.142219 95.904 
" clip-path="url(#paa70a0d7dc)" style="fill: #2a1636"/>
    <path d="M 241.318219 95.904 
L 263.494219 95.904 
L 263.494219 118.08 
L 241.318219 118.08 
L 241.318219 95.904 
" clip-path="url(#paa70a0d7dc)" style="fill: #2a1636"/>
    <path d="M 263.494219 95.904 
L 285.670219 95.904 
L 285.670219 118.08 
L 263.494219 118.08 
L 263.494219 95.904 
" clip-path="url(#paa70a0d7dc)" style="fill: #03051a"/>
    <path d="M 285.670219 95.904 
L 307.846219 95.904 
L 307.846219 118.08 
L 285.670219 118.08 
L 285.670219 95.904 
" clip-path="url(#paa70a0d7dc)" style="fill: #03051a"/>
    <path d="M 41.734219 118.08 
L 63.910219 118.08 
L 63.910219 140.256 
L 41.734219 140.256 
L 41.734219 118.08 
" clip-path="url(#paa70a0d7dc)" style="fill: #03051a"/>
    <path d="M 63.910219 118.08 
L 86.086219 118.08 
L 86.086219 140.256 
L 63.910219 140.256 
L 63.910219 118.08 
" clip-path="url(#paa70a0d7dc)" style="fill: #03051a"/>
    <path d="M 86.086219 118.08 
L 108.262219 118.08 
L 108.262219 140.256 
L 86.086219 140.256 
L 86.086219 118.08 
" clip-path="url(#paa70a0d7dc)" style="fill: #03051a"/>
    <path d="M 108.262219 118.08 
L 130.438219 118.08 
L 130.438219 140.256 
L 108.262219 140.256 
L 108.262219 118.08 
" clip-path="url(#paa70a0d7dc)" style="fill: #07071d"/>
    <path d="M 130.438219 118.08 
L 152.614219 118.08 
L 152.614219 140.256 
L 130.438219 140.256 
L 130.438219 118.08 
" clip-path="url(#paa70a0d7dc)" style="fill: #31183b"/>
    <path d="M 152.614219 118.08 
L 174.790219 118.08 
L 174.790219 140.256 
L 152.614219 140.256 
L 152.614219 118.08 
" clip-path="url(#paa70a0d7dc)" style="fill: #f5966c"/>
    <path d="M 174.790219 118.08 
L 196.966219 118.08 
L 196.966219 140.256 
L 174.790219 140.256 
L 174.790219 118.08 
" clip-path="url(#paa70a0d7dc)" style="fill: #501d4c"/>
    <path d="M 196.966219 118.08 
L 219.142219 118.08 
L 219.142219 140.256 
L 196.966219 140.256 
L 196.966219 118.08 
" clip-path="url(#paa70a0d7dc)" style="fill: #531e4d"/>
    <path d="M 219.142219 118.08 
L 241.318219 118.08 
L 241.318219 140.256 
L 219.142219 140.256 
L 219.142219 118.08 
" clip-path="url(#paa70a0d7dc)" style="fill: #271534"/>
    <path d="M 241.318219 118.08 
L 263.494219 118.08 
L 263.494219 140.256 
L 241.318219 140.256 
L 241.318219 118.08 
" clip-path="url(#paa70a0d7dc)" style="fill: #07071d"/>
    <path d="M 263.494219 118.08 
L 285.670219 118.08 
L 285.670219 140.256 
L 263.494219 140.256 
L 263.494219 118.08 
" clip-path="url(#paa70a0d7dc)" style="fill: #03051a"/>
    <path d="M 285.670219 118.08 
L 307.846219 118.08 
L 307.846219 140.256 
L 285.670219 140.256 
L 285.670219 118.08 
" clip-path="url(#paa70a0d7dc)" style="fill: #03051a"/>
    <path d="M 41.734219 140.256 
L 63.910219 140.256 
L 63.910219 162.432 
L 41.734219 162.432 
L 41.734219 140.256 
" clip-path="url(#paa70a0d7dc)" style="fill: #03051a"/>
    <path d="M 63.910219 140.256 
L 86.086219 140.256 
L 86.086219 162.432 
L 63.910219 162.432 
L 63.910219 140.256 
" clip-path="url(#paa70a0d7dc)" style="fill: #03051a"/>
    <path d="M 86.086219 140.256 
L 108.262219 140.256 
L 108.262219 162.432 
L 86.086219 162.432 
L 86.086219 140.256 
" clip-path="url(#paa70a0d7dc)" style="fill: #03051a"/>
    <path d="M 108.262219 140.256 
L 130.438219 140.256 
L 130.438219 162.432 
L 108.262219 162.432 
L 108.262219 140.256 
" clip-path="url(#paa70a0d7dc)" style="fill: #03051a"/>
    <path d="M 130.438219 140.256 
L 152.614219 140.256 
L 152.614219 162.432 
L 130.438219 162.432 
L 130.438219 140.256 
" clip-path="url(#paa70a0d7dc)" style="fill: #07071d"/>
    <path d="M 152.614219 140.256 
L 174.790219 140.256 
L 174.790219 162.432 
L 152.614219 162.432 
L 152.614219 140.256 
" clip-path="url(#paa70a0d7dc)" style="fill: #431c46"/>
    <path d="M 174.790219 140.256 
L 196.966219 140.256 
L 196.966219 162.432 
L 174.790219 162.432 
L 174.790219 140.256 
" clip-path="url(#paa70a0d7dc)" style="fill: #faebdd"/>
    <path d="M 196.966219 140.256 
L 219.142219 140.256 
L 219.142219 162.432 
L 196.966219 162.432 
L 196.966219 140.256 
" clip-path="url(#paa70a0d7dc)" style="fill: #b01759"/>
    <path d="M 219.142219 140.256 
L 241.318219 140.256 
L 241.318219 162.432 
L 219.142219 162.432 
L 219.142219 140.256 
" clip-path="url(#paa70a0d7dc)" style="fill: #1d112c"/>
    <path d="M 241.318219 140.256 
L 263.494219 140.256 
L 263.494219 162.432 
L 241.318219 162.432 
L 241.318219 140.256 
" clip-path="url(#paa70a0d7dc)" style="fill: #05061b"/>
    <path d="M 263.494219 140.256 
L 285.670219 140.256 
L 285.670219 162.432 
L 263.494219 162.432 
L 263.494219 140.256 
" clip-path="url(#paa70a0d7dc)" style="fill: #03051a"/>
    <path d="M 285.670219 140.256 
L 307.846219 140.256 
L 307.846219 162.432 
L 285.670219 162.432 
L 285.670219 140.256 
" clip-path="url(#paa70a0d7dc)" style="fill: #03051a"/>
    <path d="M 41.734219 162.432 
L 63.910219 162.432 
L 63.910219 184.608 
L 41.734219 184.608 
L 41.734219 162.432 
" clip-path="url(#paa70a0d7dc)" style="fill: #03051a"/>
    <path d="M 63.910219 162.432 
L 86.086219 162.432 
L 86.086219 184.608 
L 63.910219 184.608 
L 63.910219 162.432 
" clip-path="url(#paa70a0d7dc)" style="fill: #03051a"/>
    <path d="M 86.086219 162.432 
L 108.262219 162.432 
L 108.262219 184.608 
L 86.086219 184.608 
L 86.086219 162.432 
" clip-path="url(#paa70a0d7dc)" style="fill: #03051a"/>
    <path d="M 108.262219 162.432 
L 130.438219 162.432 
L 130.438219 184.608 
L 108.262219 184.608 
L 108.262219 162.432 
" clip-path="url(#paa70a0d7dc)" style="fill: #03051a"/>
    <path d="M 130.438219 162.432 
L 152.614219 162.432 
L 152.614219 184.608 
L 130.438219 184.608 
L 130.438219 162.432 
" clip-path="url(#paa70a0d7dc)" style="fill: #130d25"/>
    <path d="M 152.614219 162.432 
L 174.790219 162.432 
L 174.790219 184.608 
L 152.614219 184.608 
L 152.614219 162.432 
" clip-path="url(#paa70a0d7dc)" style="fill: #381a40"/>
    <path d="M 174.790219 162.432 
L 196.966219 162.432 
L 196.966219 184.608 
L 174.790219 184.608 
L 174.790219 162.432 
" clip-path="url(#paa70a0d7dc)" style="fill: #661f54"/>
    <path d="M 196.966219 162.432 
L 219.142219 162.432 
L 219.142219 184.608 
L 196.966219 184.608 
L 196.966219 162.432 
" clip-path="url(#paa70a0d7dc)" style="fill: #f05e42"/>
    <path d="M 219.142219 162.432 
L 241.318219 162.432 
L 241.318219 184.608 
L 219.142219 184.608 
L 219.142219 162.432 
" clip-path="url(#paa70a0d7dc)" style="fill: #431c46"/>
    <path d="M 241.318219 162.432 
L 263.494219 162.432 
L 263.494219 184.608 
L 241.318219 184.608 
L 241.318219 162.432 
" clip-path="url(#paa70a0d7dc)" style="fill: #05061b"/>
    <path d="M 263.494219 162.432 
L 285.670219 162.432 
L 285.670219 184.608 
L 263.494219 184.608 
L 263.494219 162.432 
" clip-path="url(#paa70a0d7dc)" style="fill: #03051a"/>
    <path d="M 285.670219 162.432 
L 307.846219 162.432 
L 307.846219 184.608 
L 285.670219 184.608 
L 285.670219 162.432 
" clip-path="url(#paa70a0d7dc)" style="fill: #03051a"/>
    <path d="M 41.734219 184.608 
L 63.910219 184.608 
L 63.910219 206.784 
L 41.734219 206.784 
L 41.734219 184.608 
" clip-path="url(#paa70a0d7dc)" style="fill: #03051a"/>
    <path d="M 63.910219 184.608 
L 86.086219 184.608 
L 86.086219 206.784 
L 63.910219 206.784 
L 63.910219 184.608 
" clip-path="url(#paa70a0d7dc)" style="fill: #03051a"/>
    <path d="M 86.086219 184.608 
L 108.262219 184.608 
L 108.262219 206.784 
L 86.086219 206.784 
L 86.086219 184.608 
" clip-path="url(#paa70a0d7dc)" style="fill: #0b0920"/>
    <path d="M 108.262219 184.608 
L 130.438219 184.608 
L 130.438219 206.784 
L 108.262219 206.784 
L 108.262219 184.608 
" clip-path="url(#paa70a0d7dc)" style="fill: #0b0920"/>
    <path d="M 130.438219 184.608 
L 152.614219 184.608 
L 152.614219 206.784 
L 130.438219 206.784 
L 130.438219 184.608 
" clip-path="url(#paa70a0d7dc)" style="fill: #20122e"/>
    <path d="M 152.614219 184.608 
L 174.790219 184.608 
L 174.790219 206.784 
L 152.614219 206.784 
L 152.614219 184.608 
" clip-path="url(#paa70a0d7dc)" style="fill: #180f29"/>
    <path d="M 174.790219 184.608 
L 196.966219 184.608 
L 196.966219 206.784 
L 174.790219 206.784 
L 174.790219 184.608 
" clip-path="url(#paa70a0d7dc)" style="fill: #130d25"/>
    <path d="M 196.966219 184.608 
L 219.142219 184.608 
L 219.142219 206.784 
L 196.966219 206.784 
L 196.966219 184.608 
" clip-path="url(#paa70a0d7dc)" style="fill: #0e0b22"/>
    <path d="M 219.142219 184.608 
L 241.318219 184.608 
L 241.318219 206.784 
L 219.142219 206.784 
L 219.142219 184.608 
" clip-path="url(#paa70a0d7dc)" style="fill: #f5966c"/>
    <path d="M 241.318219 184.608 
L 263.494219 184.608 
L 263.494219 206.784 
L 241.318219 206.784 
L 241.318219 184.608 
" clip-path="url(#paa70a0d7dc)" style="fill: #271534"/>
    <path d="M 263.494219 184.608 
L 285.670219 184.608 
L 285.670219 206.784 
L 263.494219 206.784 
L 263.494219 184.608 
" clip-path="url(#paa70a0d7dc)" style="fill: #03051a"/>
    <path d="M 285.670219 184.608 
L 307.846219 184.608 
L 307.846219 206.784 
L 285.670219 206.784 
L 285.670219 184.608 
" clip-path="url(#paa70a0d7dc)" style="fill: #03051a"/>
    <path d="M 41.734219 206.784 
L 63.910219 206.784 
L 63.910219 228.96 
L 41.734219 228.96 
L 41.734219 206.784 
" clip-path="url(#paa70a0d7dc)" style="fill: #03051a"/>
    <path d="M 63.910219 206.784 
L 86.086219 206.784 
L 86.086219 228.96 
L 63.910219 228.96 
L 63.910219 206.784 
" clip-path="url(#paa70a0d7dc)" style="fill: #07071d"/>
    <path d="M 86.086219 206.784 
L 108.262219 206.784 
L 108.262219 228.96 
L 86.086219 228.96 
L 86.086219 206.784 
" clip-path="url(#paa70a0d7dc)" style="fill: #130d25"/>
    <path d="M 108.262219 206.784 
L 130.438219 206.784 
L 130.438219 228.96 
L 108.262219 228.96 
L 108.262219 206.784 
" clip-path="url(#paa70a0d7dc)" style="fill: #05061b"/>
    <path d="M 130.438219 206.784 
L 152.614219 206.784 
L 152.614219 228.96 
L 130.438219 228.96 
L 130.438219 206.784 
" clip-path="url(#paa70a0d7dc)" style="fill: #20122e"/>
    <path d="M 152.614219 206.784 
L 174.790219 206.784 
L 174.790219 228.96 
L 152.614219 228.96 
L 152.614219 206.784 
" clip-path="url(#paa70a0d7dc)" style="fill: #07071d"/>
    <path d="M 174.790219 206.784 
L 196.966219 206.784 
L 196.966219 228.96 
L 174.790219 228.96 
L 174.790219 206.784 
" clip-path="url(#paa70a0d7dc)" style="fill: #05061b"/>
    <path d="M 196.966219 206.784 
L 219.142219 206.784 
L 219.142219 228.96 
L 196.966219 228.96 
L 196.966219 206.784 
" clip-path="url(#paa70a0d7dc)" style="fill: #03051a"/>
    <path d="M 219.142219 206.784 
L 241.318219 206.784 
L 241.318219 228.96 
L 219.142219 228.96 
L 219.142219 206.784 
" clip-path="url(#paa70a0d7dc)" style="fill: #1d112c"/>
    <path d="M 241.318219 206.784 
L 263.494219 206.784 
L 263.494219 228.96 
L 241.318219 228.96 
L 241.318219 206.784 
" clip-path="url(#paa70a0d7dc)" style="fill: #f6a67e"/>
    <path d="M 263.494219 206.784 
L 285.670219 206.784 
L 285.670219 228.96 
L 263.494219 228.96 
L 263.494219 206.784 
" clip-path="url(#paa70a0d7dc)" style="fill: #31183b"/>
    <path d="M 285.670219 206.784 
L 307.846219 206.784 
L 307.846219 228.96 
L 285.670219 228.96 
L 285.670219 206.784 
" clip-path="url(#paa70a0d7dc)" style="fill: #05061b"/>
    <path d="M 41.734219 228.96 
L 63.910219 228.96 
L 63.910219 251.136 
L 41.734219 251.136 
L 41.734219 228.96 
" clip-path="url(#paa70a0d7dc)" style="fill: #03051a"/>
    <path d="M 63.910219 228.96 
L 86.086219 228.96 
L 86.086219 251.136 
L 63.910219 251.136 
L 63.910219 228.96 
" clip-path="url(#paa70a0d7dc)" style="fill: #271534"/>
    <path d="M 86.086219 228.96 
L 108.262219 228.96 
L 108.262219 251.136 
L 86.086219 251.136 
L 86.086219 228.96 
" clip-path="url(#paa70a0d7dc)" style="fill: #0b0920"/>
    <path d="M 108.262219 228.96 
L 130.438219 228.96 
L 130.438219 251.136 
L 108.262219 251.136 
L 108.262219 228.96 
" clip-path="url(#paa70a0d7dc)" style="fill: #0e0b22"/>
    <path d="M 130.438219 228.96 
L 152.614219 228.96 
L 152.614219 251.136 
L 130.438219 251.136 
L 130.438219 228.96 
" clip-path="url(#paa70a0d7dc)" style="fill: #03051a"/>
    <path d="M 152.614219 228.96 
L 174.790219 228.96 
L 174.790219 251.136 
L 152.614219 251.136 
L 152.614219 228.96 
" clip-path="url(#paa70a0d7dc)" style="fill: #03051a"/>
    <path d="M 174.790219 228.96 
L 196.966219 228.96 
L 196.966219 251.136 
L 174.790219 251.136 
L 174.790219 228.96 
" clip-path="url(#paa70a0d7dc)" style="fill: #03051a"/>
    <path d="M 196.966219 228.96 
L 219.142219 228.96 
L 219.142219 251.136 
L 196.966219 251.136 
L 196.966219 228.96 
" clip-path="url(#paa70a0d7dc)" style="fill: #03051a"/>
    <path d="M 219.142219 228.96 
L 241.318219 228.96 
L 241.318219 251.136 
L 219.142219 251.136 
L 219.142219 228.96 
" clip-path="url(#paa70a0d7dc)" style="fill: #03051a"/>
    <path d="M 241.318219 228.96 
L 263.494219 228.96 
L 263.494219 251.136 
L 241.318219 251.136 
L 241.318219 228.96 
" clip-path="url(#paa70a0d7dc)" style="fill: #160e27"/>
    <path d="M 263.494219 228.96 
L 285.670219 228.96 
L 285.670219 251.136 
L 263.494219 251.136 
L 263.494219 228.96 
" clip-path="url(#paa70a0d7dc)" style="fill: #a8185a"/>
    <path d="M 285.670219 228.96 
L 307.846219 228.96 
L 307.846219 251.136 
L 285.670219 251.136 
L 285.670219 228.96 
" clip-path="url(#paa70a0d7dc)" style="fill: #180f29"/>
    <path d="M 41.734219 251.136 
L 63.910219 251.136 
L 63.910219 273.312 
L 41.734219 273.312 
L 41.734219 251.136 
" clip-path="url(#paa70a0d7dc)" style="fill: #07071d"/>
    <path d="M 63.910219 251.136 
L 86.086219 251.136 
L 86.086219 273.312 
L 63.910219 273.312 
L 63.910219 251.136 
" clip-path="url(#paa70a0d7dc)" style="fill: #31183b"/>
    <path d="M 86.086219 251.136 
L 108.262219 251.136 
L 108.262219 273.312 
L 86.086219 273.312 
L 86.086219 251.136 
" clip-path="url(#paa70a0d7dc)" style="fill: #05061b"/>
    <path d="M 108.262219 251.136 
L 130.438219 251.136 
L 130.438219 273.312 
L 108.262219 273.312 
L 108.262219 251.136 
" clip-path="url(#paa70a0d7dc)" style="fill: #07071d"/>
    <path d="M 130.438219 251.136 
L 152.614219 251.136 
L 152.614219 273.312 
L 130.438219 273.312 
L 130.438219 251.136 
" clip-path="url(#paa70a0d7dc)" style="fill: #03051a"/>
    <path d="M 152.614219 251.136 
L 174.790219 251.136 
L 174.790219 273.312 
L 152.614219 273.312 
L 152.614219 251.136 
" clip-path="url(#paa70a0d7dc)" style="fill: #03051a"/>
    <path d="M 174.790219 251.136 
L 196.966219 251.136 
L 196.966219 273.312 
L 174.790219 273.312 
L 174.790219 251.136 
" clip-path="url(#paa70a0d7dc)" style="fill: #03051a"/>
    <path d="M 196.966219 251.136 
L 219.142219 251.136 
L 219.142219 273.312 
L 196.966219 273.312 
L 196.966219 251.136 
" clip-path="url(#paa70a0d7dc)" style="fill: #03051a"/>
    <path d="M 219.142219 251.136 
L 241.318219 251.136 
L 241.318219 273.312 
L 219.142219 273.312 
L 219.142219 251.136 
" clip-path="url(#paa70a0d7dc)" style="fill: #03051a"/>
    <path d="M 241.318219 251.136 
L 263.494219 251.136 
L 263.494219 273.312 
L 241.318219 273.312 
L 241.318219 251.136 
" clip-path="url(#paa70a0d7dc)" style="fill: #03051a"/>
    <path d="M 263.494219 251.136 
L 285.670219 251.136 
L 285.670219 273.312 
L 263.494219 273.312 
L 263.494219 251.136 
" clip-path="url(#paa70a0d7dc)" style="fill: #180f29"/>
    <path d="M 285.670219 251.136 
L 307.846219 251.136 
L 307.846219 273.312 
L 285.670219 273.312 
L 285.670219 251.136 
" clip-path="url(#paa70a0d7dc)" style="fill: #ef5840"/>
   </g>
   <g id="text_27">
    <!-- 76 -->
    <g style="fill: #ffffff" transform="translate(46.149094 21.390188) scale(0.12 -0.12)">
     <use xlink:href="#ArialMT-37"/>
     <use xlink:href="#ArialMT-36" transform="translate(55.615234 0)"/>
    </g>
   </g>
   <g id="text_28">
    <!-- 10 -->
    <g style="fill: #ffffff" transform="translate(68.325094 21.390188) scale(0.12 -0.12)">
     <use xlink:href="#ArialMT-31"/>
     <use xlink:href="#ArialMT-30" transform="translate(55.615234 0)"/>
    </g>
   </g>
   <g id="text_29">
    <!-- 3 -->
    <g style="fill: #ffffff" transform="translate(93.837656 21.390188) scale(0.12 -0.12)">
     <use xlink:href="#ArialMT-33"/>
    </g>
   </g>
   <g id="text_30">
    <!-- 0 -->
    <g style="fill: #ffffff" transform="translate(116.013656 21.390188) scale(0.12 -0.12)">
     <use xlink:href="#ArialMT-30"/>
    </g>
   </g>
   <g id="text_31">
    <!-- 0 -->
    <g style="fill: #ffffff" transform="translate(138.189656 21.390188) scale(0.12 -0.12)">
     <use xlink:href="#ArialMT-30"/>
    </g>
   </g>
   <g id="text_32">
    <!-- 0 -->
    <g style="fill: #ffffff" transform="translate(160.365656 21.390188) scale(0.12 -0.12)">
     <use xlink:href="#ArialMT-30"/>
    </g>
   </g>
   <g id="text_33">
    <!-- 0 -->
    <g style="fill: #ffffff" transform="translate(182.541656 21.390188) scale(0.12 -0.12)">
     <use xlink:href="#ArialMT-30"/>
    </g>
   </g>
   <g id="text_34">
    <!-- 0 -->
    <g style="fill: #ffffff" transform="translate(204.717656 21.390188) scale(0.12 -0.12)">
     <use xlink:href="#ArialMT-30"/>
    </g>
   </g>
   <g id="text_35">
    <!-- 0 -->
    <g style="fill: #ffffff" transform="translate(226.893656 21.390188) scale(0.12 -0.12)">
     <use xlink:href="#ArialMT-30"/>
    </g>
   </g>
   <g id="text_36">
    <!-- 0 -->
    <g style="fill: #ffffff" transform="translate(249.069656 21.390188) scale(0.12 -0.12)">
     <use xlink:href="#ArialMT-30"/>
    </g>
   </g>
   <g id="text_37">
    <!-- 2 -->
    <g style="fill: #ffffff" transform="translate(271.245656 21.390188) scale(0.12 -0.12)">
     <use xlink:href="#ArialMT-32"/>
    </g>
   </g>
   <g id="text_38">
    <!-- 3 -->
    <g style="fill: #ffffff" transform="translate(293.421656 21.390188) scale(0.12 -0.12)">
     <use xlink:href="#ArialMT-33"/>
    </g>
   </g>
   <g id="text_39">
    <!-- 11 -->
    <g style="fill: #ffffff" transform="translate(46.591594 43.566188) scale(0.12 -0.12)">
     <use xlink:href="#ArialMT-31"/>
     <use xlink:href="#ArialMT-31" transform="translate(48.240234 0)"/>
    </g>
   </g>
   <g id="text_40">
    <!-- 79 -->
    <g style="fill: #ffffff" transform="translate(68.325094 43.566188) scale(0.12 -0.12)">
     <use xlink:href="#ArialMT-37"/>
     <use xlink:href="#ArialMT-39" transform="translate(55.615234 0)"/>
    </g>
   </g>
   <g id="text_41">
    <!-- 23 -->
    <g style="fill: #ffffff" transform="translate(90.501094 43.566188) scale(0.12 -0.12)">
     <use xlink:href="#ArialMT-32"/>
     <use xlink:href="#ArialMT-33" transform="translate(55.615234 0)"/>
    </g>
   </g>
   <g id="text_42">
    <!-- 1 -->
    <g style="fill: #ffffff" transform="translate(116.013656 43.566188) scale(0.12 -0.12)">
     <use xlink:href="#ArialMT-31"/>
    </g>
   </g>
   <g id="text_43">
    <!-- 0 -->
    <g style="fill: #ffffff" transform="translate(138.189656 43.566188) scale(0.12 -0.12)">
     <use xlink:href="#ArialMT-30"/>
    </g>
   </g>
   <g id="text_44">
    <!-- 0 -->
    <g style="fill: #ffffff" transform="translate(160.365656 43.566188) scale(0.12 -0.12)">
     <use xlink:href="#ArialMT-30"/>
    </g>
   </g>
   <g id="text_45">
    <!-- 0 -->
    <g style="fill: #ffffff" transform="translate(182.541656 43.566188) scale(0.12 -0.12)">
     <use xlink:href="#ArialMT-30"/>
    </g>
   </g>
   <g id="text_46">
    <!-- 0 -->
    <g style="fill: #ffffff" transform="translate(204.717656 43.566188) scale(0.12 -0.12)">
     <use xlink:href="#ArialMT-30"/>
    </g>
   </g>
   <g id="text_47">
    <!-- 0 -->
    <g style="fill: #ffffff" transform="translate(226.893656 43.566188) scale(0.12 -0.12)">
     <use xlink:href="#ArialMT-30"/>
    </g>
   </g>
   <g id="text_48">
    <!-- 1 -->
    <g style="fill: #ffffff" transform="translate(249.069656 43.566188) scale(0.12 -0.12)">
     <use xlink:href="#ArialMT-31"/>
    </g>
   </g>
   <g id="text_49">
    <!-- 19 -->
    <g style="fill: #ffffff" transform="translate(267.909094 43.566188) scale(0.12 -0.12)">
     <use xlink:href="#ArialMT-31"/>
     <use xlink:href="#ArialMT-39" transform="translate(55.615234 0)"/>
    </g>
   </g>
   <g id="text_50">
    <!-- 28 -->
    <g style="fill: #ffffff" transform="translate(290.085094 43.566188) scale(0.12 -0.12)">
     <use xlink:href="#ArialMT-32"/>
     <use xlink:href="#ArialMT-38" transform="translate(55.615234 0)"/>
    </g>
   </g>
   <g id="text_51">
    <!-- 0 -->
    <g style="fill: #ffffff" transform="translate(49.485656 65.742188) scale(0.12 -0.12)">
     <use xlink:href="#ArialMT-30"/>
    </g>
   </g>
   <g id="text_52">
    <!-- 14 -->
    <g style="fill: #ffffff" transform="translate(68.325094 65.742188) scale(0.12 -0.12)">
     <use xlink:href="#ArialMT-31"/>
     <use xlink:href="#ArialMT-34" transform="translate(55.615234 0)"/>
    </g>
   </g>
   <g id="text_53">
    <!-- 76 -->
    <g style="fill: #ffffff" transform="translate(90.501094 65.742188) scale(0.12 -0.12)">
     <use xlink:href="#ArialMT-37"/>
     <use xlink:href="#ArialMT-36" transform="translate(55.615234 0)"/>
    </g>
   </g>
   <g id="text_54">
    <!-- 32 -->
    <g style="fill: #ffffff" transform="translate(112.677094 65.742188) scale(0.12 -0.12)">
     <use xlink:href="#ArialMT-33"/>
     <use xlink:href="#ArialMT-32" transform="translate(55.615234 0)"/>
    </g>
   </g>
   <g id="text_55">
    <!-- 5 -->
    <g style="fill: #ffffff" transform="translate(138.189656 65.742188) scale(0.12 -0.12)">
     <use xlink:href="#ArialMT-35"/>
    </g>
   </g>
   <g id="text_56">
    <!-- 0 -->
    <g style="fill: #ffffff" transform="translate(160.365656 65.742188) scale(0.12 -0.12)">
     <use xlink:href="#ArialMT-30"/>
    </g>
   </g>
   <g id="text_57">
    <!-- 0 -->
    <g style="fill: #ffffff" transform="translate(182.541656 65.742188) scale(0.12 -0.12)">
     <use xlink:href="#ArialMT-30"/>
    </g>
   </g>
   <g id="text_58">
    <!-- 0 -->
    <g style="fill: #ffffff" transform="translate(204.717656 65.742188) scale(0.12 -0.12)">
     <use xlink:href="#ArialMT-30"/>
    </g>
   </g>
   <g id="text_59">
    <!-- 2 -->
    <g style="fill: #ffffff" transform="translate(226.893656 65.742188) scale(0.12 -0.12)">
     <use xlink:href="#ArialMT-32"/>
    </g>
   </g>
   <g id="text_60">
    <!-- 15 -->
    <g style="fill: #ffffff" transform="translate(245.733094 65.742188) scale(0.12 -0.12)">
     <use xlink:href="#ArialMT-31"/>
     <use xlink:href="#ArialMT-35" transform="translate(55.615234 0)"/>
    </g>
   </g>
   <g id="text_61">
    <!-- 9 -->
    <g style="fill: #ffffff" transform="translate(271.245656 65.742188) scale(0.12 -0.12)">
     <use xlink:href="#ArialMT-39"/>
    </g>
   </g>
   <g id="text_62">
    <!-- 2 -->
    <g style="fill: #ffffff" transform="translate(293.421656 65.742188) scale(0.12 -0.12)">
     <use xlink:href="#ArialMT-32"/>
    </g>
   </g>
   <g id="text_63">
    <!-- 0 -->
    <g style="fill: #ffffff" transform="translate(49.485656 87.918188) scale(0.12 -0.12)">
     <use xlink:href="#ArialMT-30"/>
    </g>
   </g>
   <g id="text_64">
    <!-- 0 -->
    <g style="fill: #ffffff" transform="translate(71.661656 87.918188) scale(0.12 -0.12)">
     <use xlink:href="#ArialMT-30"/>
    </g>
   </g>
   <g id="text_65">
    <!-- 21 -->
    <g style="fill: #ffffff" transform="translate(90.501094 87.918188) scale(0.12 -0.12)">
     <use xlink:href="#ArialMT-32"/>
     <use xlink:href="#ArialMT-31" transform="translate(55.615234 0)"/>
    </g>
   </g>
   <g id="text_66">
    <!-- 81 -->
    <g style="fill: #ffffff" transform="translate(112.677094 87.918188) scale(0.12 -0.12)">
     <use xlink:href="#ArialMT-38"/>
     <use xlink:href="#ArialMT-31" transform="translate(55.615234 0)"/>
    </g>
   </g>
   <g id="text_67">
    <!-- 33 -->
    <g style="fill: #ffffff" transform="translate(134.853094 87.918188) scale(0.12 -0.12)">
     <use xlink:href="#ArialMT-33"/>
     <use xlink:href="#ArialMT-33" transform="translate(55.615234 0)"/>
    </g>
   </g>
   <g id="text_68">
    <!-- 0 -->
    <g style="fill: #ffffff" transform="translate(160.365656 87.918188) scale(0.12 -0.12)">
     <use xlink:href="#ArialMT-30"/>
    </g>
   </g>
   <g id="text_69">
    <!-- 0 -->
    <g style="fill: #ffffff" transform="translate(182.541656 87.918188) scale(0.12 -0.12)">
     <use xlink:href="#ArialMT-30"/>
    </g>
   </g>
   <g id="text_70">
    <!-- 0 -->
    <g style="fill: #ffffff" transform="translate(204.717656 87.918188) scale(0.12 -0.12)">
     <use xlink:href="#ArialMT-30"/>
    </g>
   </g>
   <g id="text_71">
    <!-- 2 -->
    <g style="fill: #ffffff" transform="translate(226.893656 87.918188) scale(0.12 -0.12)">
     <use xlink:href="#ArialMT-32"/>
    </g>
   </g>
   <g id="text_72">
    <!-- 12 -->
    <g style="fill: #ffffff" transform="translate(245.733094 87.918188) scale(0.12 -0.12)">
     <use xlink:href="#ArialMT-31"/>
     <use xlink:href="#ArialMT-32" transform="translate(55.615234 0)"/>
    </g>
   </g>
   <g id="text_73">
    <!-- 2 -->
    <g style="fill: #ffffff" transform="translate(271.245656 87.918188) scale(0.12 -0.12)">
     <use xlink:href="#ArialMT-32"/>
    </g>
   </g>
   <g id="text_74">
    <!-- 0 -->
    <g style="fill: #ffffff" transform="translate(293.421656 87.918188) scale(0.12 -0.12)">
     <use xlink:href="#ArialMT-30"/>
    </g>
   </g>
   <g id="text_75">
    <!-- 0 -->
    <g style="fill: #ffffff" transform="translate(49.485656 110.094188) scale(0.12 -0.12)">
     <use xlink:href="#ArialMT-30"/>
    </g>
   </g>
   <g id="text_76">
    <!-- 0 -->
    <g style="fill: #ffffff" transform="translate(71.661656 110.094188) scale(0.12 -0.12)">
     <use xlink:href="#ArialMT-30"/>
    </g>
   </g>
   <g id="text_77">
    <!-- 0 -->
    <g style="fill: #ffffff" transform="translate(93.837656 110.094188) scale(0.12 -0.12)">
     <use xlink:href="#ArialMT-30"/>
    </g>
   </g>
   <g id="text_78">
    <!-- 28 -->
    <g style="fill: #ffffff" transform="translate(112.677094 110.094188) scale(0.12 -0.12)">
     <use xlink:href="#ArialMT-32"/>
     <use xlink:href="#ArialMT-38" transform="translate(55.615234 0)"/>
    </g>
   </g>
   <g id="text_79">
    <!-- 56 -->
    <g style="fill: #ffffff" transform="translate(134.853094 110.094188) scale(0.12 -0.12)">
     <use xlink:href="#ArialMT-35"/>
     <use xlink:href="#ArialMT-36" transform="translate(55.615234 0)"/>
    </g>
   </g>
   <g id="text_80">
    <!-- 32 -->
    <g style="fill: #ffffff" transform="translate(157.029094 110.094188) scale(0.12 -0.12)">
     <use xlink:href="#ArialMT-33"/>
     <use xlink:href="#ArialMT-32" transform="translate(55.615234 0)"/>
    </g>
   </g>
   <g id="text_81">
    <!-- 0 -->
    <g style="fill: #ffffff" transform="translate(182.541656 110.094188) scale(0.12 -0.12)">
     <use xlink:href="#ArialMT-30"/>
    </g>
   </g>
   <g id="text_82">
    <!-- 4 -->
    <g style="fill: #ffffff" transform="translate(204.717656 110.094188) scale(0.12 -0.12)">
     <use xlink:href="#ArialMT-34"/>
    </g>
   </g>
   <g id="text_83">
    <!-- 12 -->
    <g style="fill: #ffffff" transform="translate(223.557094 110.094188) scale(0.12 -0.12)">
     <use xlink:href="#ArialMT-31"/>
     <use xlink:href="#ArialMT-32" transform="translate(55.615234 0)"/>
    </g>
   </g>
   <g id="text_84">
    <!-- 12 -->
    <g style="fill: #ffffff" transform="translate(245.733094 110.094188) scale(0.12 -0.12)">
     <use xlink:href="#ArialMT-31"/>
     <use xlink:href="#ArialMT-32" transform="translate(55.615234 0)"/>
    </g>
   </g>
   <g id="text_85">
    <!-- 0 -->
    <g style="fill: #ffffff" transform="translate(271.245656 110.094188) scale(0.12 -0.12)">
     <use xlink:href="#ArialMT-30"/>
    </g>
   </g>
   <g id="text_86">
    <!-- 0 -->
    <g style="fill: #ffffff" transform="translate(293.421656 110.094188) scale(0.12 -0.12)">
     <use xlink:href="#ArialMT-30"/>
    </g>
   </g>
   <g id="text_87">
    <!-- 0 -->
    <g style="fill: #ffffff" transform="translate(49.485656 132.270188) scale(0.12 -0.12)">
     <use xlink:href="#ArialMT-30"/>
    </g>
   </g>
   <g id="text_88">
    <!-- 0 -->
    <g style="fill: #ffffff" transform="translate(71.661656 132.270188) scale(0.12 -0.12)">
     <use xlink:href="#ArialMT-30"/>
    </g>
   </g>
   <g id="text_89">
    <!-- 0 -->
    <g style="fill: #ffffff" transform="translate(93.837656 132.270188) scale(0.12 -0.12)">
     <use xlink:href="#ArialMT-30"/>
    </g>
   </g>
   <g id="text_90">
    <!-- 2 -->
    <g style="fill: #ffffff" transform="translate(116.013656 132.270188) scale(0.12 -0.12)">
     <use xlink:href="#ArialMT-32"/>
    </g>
   </g>
   <g id="text_91">
    <!-- 14 -->
    <g style="fill: #ffffff" transform="translate(134.853094 132.270188) scale(0.12 -0.12)">
     <use xlink:href="#ArialMT-31"/>
     <use xlink:href="#ArialMT-34" transform="translate(55.615234 0)"/>
    </g>
   </g>
   <g id="text_92">
    <!-- 83 -->
    <g style="fill: #262626" transform="translate(157.029094 132.270188) scale(0.12 -0.12)">
     <use xlink:href="#ArialMT-38"/>
     <use xlink:href="#ArialMT-33" transform="translate(55.615234 0)"/>
    </g>
   </g>
   <g id="text_93">
    <!-- 22 -->
    <g style="fill: #ffffff" transform="translate(179.205094 132.270188) scale(0.12 -0.12)">
     <use xlink:href="#ArialMT-32"/>
     <use xlink:href="#ArialMT-32" transform="translate(55.615234 0)"/>
    </g>
   </g>
   <g id="text_94">
    <!-- 23 -->
    <g style="fill: #ffffff" transform="translate(201.381094 132.270188) scale(0.12 -0.12)">
     <use xlink:href="#ArialMT-32"/>
     <use xlink:href="#ArialMT-33" transform="translate(55.615234 0)"/>
    </g>
   </g>
   <g id="text_95">
    <!-- 11 -->
    <g style="fill: #ffffff" transform="translate(223.999594 132.270188) scale(0.12 -0.12)">
     <use xlink:href="#ArialMT-31"/>
     <use xlink:href="#ArialMT-31" transform="translate(48.240234 0)"/>
    </g>
   </g>
   <g id="text_96">
    <!-- 2 -->
    <g style="fill: #ffffff" transform="translate(249.069656 132.270188) scale(0.12 -0.12)">
     <use xlink:href="#ArialMT-32"/>
    </g>
   </g>
   <g id="text_97">
    <!-- 0 -->
    <g style="fill: #ffffff" transform="translate(271.245656 132.270188) scale(0.12 -0.12)">
     <use xlink:href="#ArialMT-30"/>
    </g>
   </g>
   <g id="text_98">
    <!-- 0 -->
    <g style="fill: #ffffff" transform="translate(293.421656 132.270188) scale(0.12 -0.12)">
     <use xlink:href="#ArialMT-30"/>
    </g>
   </g>
   <g id="text_99">
    <!-- 0 -->
    <g style="fill: #ffffff" transform="translate(49.485656 154.446188) scale(0.12 -0.12)">
     <use xlink:href="#ArialMT-30"/>
    </g>
   </g>
   <g id="text_100">
    <!-- 0 -->
    <g style="fill: #ffffff" transform="translate(71.661656 154.446188) scale(0.12 -0.12)">
     <use xlink:href="#ArialMT-30"/>
    </g>
   </g>
   <g id="text_101">
    <!-- 0 -->
    <g style="fill: #ffffff" transform="translate(93.837656 154.446188) scale(0.12 -0.12)">
     <use xlink:href="#ArialMT-30"/>
    </g>
   </g>
   <g id="text_102">
    <!-- 0 -->
    <g style="fill: #ffffff" transform="translate(116.013656 154.446188) scale(0.12 -0.12)">
     <use xlink:href="#ArialMT-30"/>
    </g>
   </g>
   <g id="text_103">
    <!-- 2 -->
    <g style="fill: #ffffff" transform="translate(138.189656 154.446188) scale(0.12 -0.12)">
     <use xlink:href="#ArialMT-32"/>
    </g>
   </g>
   <g id="text_104">
    <!-- 19 -->
    <g style="fill: #ffffff" transform="translate(157.029094 154.446188) scale(0.12 -0.12)">
     <use xlink:href="#ArialMT-31"/>
     <use xlink:href="#ArialMT-39" transform="translate(55.615234 0)"/>
    </g>
   </g>
   <g id="text_105">
    <!-- 106 -->
    <g style="fill: #262626" transform="translate(175.868531 154.446188) scale(0.12 -0.12)">
     <use xlink:href="#ArialMT-31"/>
     <use xlink:href="#ArialMT-30" transform="translate(55.615234 0)"/>
     <use xlink:href="#ArialMT-36" transform="translate(111.230469 0)"/>
    </g>
   </g>
   <g id="text_106">
    <!-- 46 -->
    <g style="fill: #ffffff" transform="translate(201.381094 154.446188) scale(0.12 -0.12)">
     <use xlink:href="#ArialMT-34"/>
     <use xlink:href="#ArialMT-36" transform="translate(55.615234 0)"/>
    </g>
   </g>
   <g id="text_107">
    <!-- 8 -->
    <g style="fill: #ffffff" transform="translate(226.893656 154.446188) scale(0.12 -0.12)">
     <use xlink:href="#ArialMT-38"/>
    </g>
   </g>
   <g id="text_108">
    <!-- 1 -->
    <g style="fill: #ffffff" transform="translate(249.069656 154.446188) scale(0.12 -0.12)">
     <use xlink:href="#ArialMT-31"/>
    </g>
   </g>
   <g id="text_109">
    <!-- 0 -->
    <g style="fill: #ffffff" transform="translate(271.245656 154.446188) scale(0.12 -0.12)">
     <use xlink:href="#ArialMT-30"/>
    </g>
   </g>
   <g id="text_110">
    <!-- 0 -->
    <g style="fill: #ffffff" transform="translate(293.421656 154.446188) scale(0.12 -0.12)">
     <use xlink:href="#ArialMT-30"/>
    </g>
   </g>
   <g id="text_111">
    <!-- 0 -->
    <g style="fill: #ffffff" transform="translate(49.485656 176.622188) scale(0.12 -0.12)">
     <use xlink:href="#ArialMT-30"/>
    </g>
   </g>
   <g id="text_112">
    <!-- 0 -->
    <g style="fill: #ffffff" transform="translate(71.661656 176.622188) scale(0.12 -0.12)">
     <use xlink:href="#ArialMT-30"/>
    </g>
   </g>
   <g id="text_113">
    <!-- 0 -->
    <g style="fill: #ffffff" transform="translate(93.837656 176.622188) scale(0.12 -0.12)">
     <use xlink:href="#ArialMT-30"/>
    </g>
   </g>
   <g id="text_114">
    <!-- 0 -->
    <g style="fill: #ffffff" transform="translate(116.013656 176.622188) scale(0.12 -0.12)">
     <use xlink:href="#ArialMT-30"/>
    </g>
   </g>
   <g id="text_115">
    <!-- 5 -->
    <g style="fill: #ffffff" transform="translate(138.189656 176.622188) scale(0.12 -0.12)">
     <use xlink:href="#ArialMT-35"/>
    </g>
   </g>
   <g id="text_116">
    <!-- 16 -->
    <g style="fill: #ffffff" transform="translate(157.029094 176.622188) scale(0.12 -0.12)">
     <use xlink:href="#ArialMT-31"/>
     <use xlink:href="#ArialMT-36" transform="translate(55.615234 0)"/>
    </g>
   </g>
   <g id="text_117">
    <!-- 28 -->
    <g style="fill: #ffffff" transform="translate(179.205094 176.622188) scale(0.12 -0.12)">
     <use xlink:href="#ArialMT-32"/>
     <use xlink:href="#ArialMT-38" transform="translate(55.615234 0)"/>
    </g>
   </g>
   <g id="text_118">
    <!-- 70 -->
    <g style="fill: #ffffff" transform="translate(201.381094 176.622188) scale(0.12 -0.12)">
     <use xlink:href="#ArialMT-37"/>
     <use xlink:href="#ArialMT-30" transform="translate(55.615234 0)"/>
    </g>
   </g>
   <g id="text_119">
    <!-- 19 -->
    <g style="fill: #ffffff" transform="translate(223.557094 176.622188) scale(0.12 -0.12)">
     <use xlink:href="#ArialMT-31"/>
     <use xlink:href="#ArialMT-39" transform="translate(55.615234 0)"/>
    </g>
   </g>
   <g id="text_120">
    <!-- 1 -->
    <g style="fill: #ffffff" transform="translate(249.069656 176.622188) scale(0.12 -0.12)">
     <use xlink:href="#ArialMT-31"/>
    </g>
   </g>
   <g id="text_121">
    <!-- 0 -->
    <g style="fill: #ffffff" transform="translate(271.245656 176.622188) scale(0.12 -0.12)">
     <use xlink:href="#ArialMT-30"/>
    </g>
   </g>
   <g id="text_122">
    <!-- 0 -->
    <g style="fill: #ffffff" transform="translate(293.421656 176.622188) scale(0.12 -0.12)">
     <use xlink:href="#ArialMT-30"/>
    </g>
   </g>
   <g id="text_123">
    <!-- 0 -->
    <g style="fill: #ffffff" transform="translate(49.485656 198.798187) scale(0.12 -0.12)">
     <use xlink:href="#ArialMT-30"/>
    </g>
   </g>
   <g id="text_124">
    <!-- 0 -->
    <g style="fill: #ffffff" transform="translate(71.661656 198.798187) scale(0.12 -0.12)">
     <use xlink:href="#ArialMT-30"/>
    </g>
   </g>
   <g id="text_125">
    <!-- 3 -->
    <g style="fill: #ffffff" transform="translate(93.837656 198.798187) scale(0.12 -0.12)">
     <use xlink:href="#ArialMT-33"/>
    </g>
   </g>
   <g id="text_126">
    <!-- 3 -->
    <g style="fill: #ffffff" transform="translate(116.013656 198.798187) scale(0.12 -0.12)">
     <use xlink:href="#ArialMT-33"/>
    </g>
   </g>
   <g id="text_127">
    <!-- 9 -->
    <g style="fill: #ffffff" transform="translate(138.189656 198.798187) scale(0.12 -0.12)">
     <use xlink:href="#ArialMT-39"/>
    </g>
   </g>
   <g id="text_128">
    <!-- 7 -->
    <g style="fill: #ffffff" transform="translate(160.365656 198.798187) scale(0.12 -0.12)">
     <use xlink:href="#ArialMT-37"/>
    </g>
   </g>
   <g id="text_129">
    <!-- 5 -->
    <g style="fill: #ffffff" transform="translate(182.541656 198.798187) scale(0.12 -0.12)">
     <use xlink:href="#ArialMT-35"/>
    </g>
   </g>
   <g id="text_130">
    <!-- 4 -->
    <g style="fill: #ffffff" transform="translate(204.717656 198.798187) scale(0.12 -0.12)">
     <use xlink:href="#ArialMT-34"/>
    </g>
   </g>
   <g id="text_131">
    <!-- 83 -->
    <g style="fill: #262626" transform="translate(223.557094 198.798187) scale(0.12 -0.12)">
     <use xlink:href="#ArialMT-38"/>
     <use xlink:href="#ArialMT-33" transform="translate(55.615234 0)"/>
    </g>
   </g>
   <g id="text_132">
    <!-- 11 -->
    <g style="fill: #ffffff" transform="translate(246.175594 198.798187) scale(0.12 -0.12)">
     <use xlink:href="#ArialMT-31"/>
     <use xlink:href="#ArialMT-31" transform="translate(48.240234 0)"/>
    </g>
   </g>
   <g id="text_133">
    <!-- 0 -->
    <g style="fill: #ffffff" transform="translate(271.245656 198.798187) scale(0.12 -0.12)">
     <use xlink:href="#ArialMT-30"/>
    </g>
   </g>
   <g id="text_134">
    <!-- 0 -->
    <g style="fill: #ffffff" transform="translate(293.421656 198.798187) scale(0.12 -0.12)">
     <use xlink:href="#ArialMT-30"/>
    </g>
   </g>
   <g id="text_135">
    <!-- 0 -->
    <g style="fill: #ffffff" transform="translate(49.485656 220.974187) scale(0.12 -0.12)">
     <use xlink:href="#ArialMT-30"/>
    </g>
   </g>
   <g id="text_136">
    <!-- 2 -->
    <g style="fill: #ffffff" transform="translate(71.661656 220.974187) scale(0.12 -0.12)">
     <use xlink:href="#ArialMT-32"/>
    </g>
   </g>
   <g id="text_137">
    <!-- 5 -->
    <g style="fill: #ffffff" transform="translate(93.837656 220.974187) scale(0.12 -0.12)">
     <use xlink:href="#ArialMT-35"/>
    </g>
   </g>
   <g id="text_138">
    <!-- 1 -->
    <g style="fill: #ffffff" transform="translate(116.013656 220.974187) scale(0.12 -0.12)">
     <use xlink:href="#ArialMT-31"/>
    </g>
   </g>
   <g id="text_139">
    <!-- 9 -->
    <g style="fill: #ffffff" transform="translate(138.189656 220.974187) scale(0.12 -0.12)">
     <use xlink:href="#ArialMT-39"/>
    </g>
   </g>
   <g id="text_140">
    <!-- 2 -->
    <g style="fill: #ffffff" transform="translate(160.365656 220.974187) scale(0.12 -0.12)">
     <use xlink:href="#ArialMT-32"/>
    </g>
   </g>
   <g id="text_141">
    <!-- 1 -->
    <g style="fill: #ffffff" transform="translate(182.541656 220.974187) scale(0.12 -0.12)">
     <use xlink:href="#ArialMT-31"/>
    </g>
   </g>
   <g id="text_142">
    <!-- 0 -->
    <g style="fill: #ffffff" transform="translate(204.717656 220.974187) scale(0.12 -0.12)">
     <use xlink:href="#ArialMT-30"/>
    </g>
   </g>
   <g id="text_143">
    <!-- 8 -->
    <g style="fill: #ffffff" transform="translate(226.893656 220.974187) scale(0.12 -0.12)">
     <use xlink:href="#ArialMT-38"/>
    </g>
   </g>
   <g id="text_144">
    <!-- 87 -->
    <g style="fill: #262626" transform="translate(245.733094 220.974187) scale(0.12 -0.12)">
     <use xlink:href="#ArialMT-38"/>
     <use xlink:href="#ArialMT-37" transform="translate(55.615234 0)"/>
    </g>
   </g>
   <g id="text_145">
    <!-- 14 -->
    <g style="fill: #ffffff" transform="translate(267.909094 220.974187) scale(0.12 -0.12)">
     <use xlink:href="#ArialMT-31"/>
     <use xlink:href="#ArialMT-34" transform="translate(55.615234 0)"/>
    </g>
   </g>
   <g id="text_146">
    <!-- 1 -->
    <g style="fill: #ffffff" transform="translate(293.421656 220.974187) scale(0.12 -0.12)">
     <use xlink:href="#ArialMT-31"/>
    </g>
   </g>
   <g id="text_147">
    <!-- 0 -->
    <g style="fill: #ffffff" transform="translate(49.485656 243.150188) scale(0.12 -0.12)">
     <use xlink:href="#ArialMT-30"/>
    </g>
   </g>
   <g id="text_148">
    <!-- 11 -->
    <g style="fill: #ffffff" transform="translate(68.767594 243.150188) scale(0.12 -0.12)">
     <use xlink:href="#ArialMT-31"/>
     <use xlink:href="#ArialMT-31" transform="translate(48.240234 0)"/>
    </g>
   </g>
   <g id="text_149">
    <!-- 3 -->
    <g style="fill: #ffffff" transform="translate(93.837656 243.150188) scale(0.12 -0.12)">
     <use xlink:href="#ArialMT-33"/>
    </g>
   </g>
   <g id="text_150">
    <!-- 4 -->
    <g style="fill: #ffffff" transform="translate(116.013656 243.150188) scale(0.12 -0.12)">
     <use xlink:href="#ArialMT-34"/>
    </g>
   </g>
   <g id="text_151">
    <!-- 0 -->
    <g style="fill: #ffffff" transform="translate(138.189656 243.150188) scale(0.12 -0.12)">
     <use xlink:href="#ArialMT-30"/>
    </g>
   </g>
   <g id="text_152">
    <!-- 0 -->
    <g style="fill: #ffffff" transform="translate(160.365656 243.150188) scale(0.12 -0.12)">
     <use xlink:href="#ArialMT-30"/>
    </g>
   </g>
   <g id="text_153">
    <!-- 0 -->
    <g style="fill: #ffffff" transform="translate(182.541656 243.150188) scale(0.12 -0.12)">
     <use xlink:href="#ArialMT-30"/>
    </g>
   </g>
   <g id="text_154">
    <!-- 0 -->
    <g style="fill: #ffffff" transform="translate(204.717656 243.150188) scale(0.12 -0.12)">
     <use xlink:href="#ArialMT-30"/>
    </g>
   </g>
   <g id="text_155">
    <!-- 0 -->
    <g style="fill: #ffffff" transform="translate(226.893656 243.150188) scale(0.12 -0.12)">
     <use xlink:href="#ArialMT-30"/>
    </g>
   </g>
   <g id="text_156">
    <!-- 6 -->
    <g style="fill: #ffffff" transform="translate(249.069656 243.150188) scale(0.12 -0.12)">
     <use xlink:href="#ArialMT-36"/>
    </g>
   </g>
   <g id="text_157">
    <!-- 44 -->
    <g style="fill: #ffffff" transform="translate(267.909094 243.150188) scale(0.12 -0.12)">
     <use xlink:href="#ArialMT-34"/>
     <use xlink:href="#ArialMT-34" transform="translate(55.615234 0)"/>
    </g>
   </g>
   <g id="text_158">
    <!-- 7 -->
    <g style="fill: #ffffff" transform="translate(293.421656 243.150188) scale(0.12 -0.12)">
     <use xlink:href="#ArialMT-37"/>
    </g>
   </g>
   <g id="text_159">
    <!-- 2 -->
    <g style="fill: #ffffff" transform="translate(49.485656 265.326188) scale(0.12 -0.12)">
     <use xlink:href="#ArialMT-32"/>
    </g>
   </g>
   <g id="text_160">
    <!-- 14 -->
    <g style="fill: #ffffff" transform="translate(68.325094 265.326188) scale(0.12 -0.12)">
     <use xlink:href="#ArialMT-31"/>
     <use xlink:href="#ArialMT-34" transform="translate(55.615234 0)"/>
    </g>
   </g>
   <g id="text_161">
    <!-- 1 -->
    <g style="fill: #ffffff" transform="translate(93.837656 265.326188) scale(0.12 -0.12)">
     <use xlink:href="#ArialMT-31"/>
    </g>
   </g>
   <g id="text_162">
    <!-- 2 -->
    <g style="fill: #ffffff" transform="translate(116.013656 265.326188) scale(0.12 -0.12)">
     <use xlink:href="#ArialMT-32"/>
    </g>
   </g>
   <g id="text_163">
    <!-- 0 -->
    <g style="fill: #ffffff" transform="translate(138.189656 265.326188) scale(0.12 -0.12)">
     <use xlink:href="#ArialMT-30"/>
    </g>
   </g>
   <g id="text_164">
    <!-- 0 -->
    <g style="fill: #ffffff" transform="translate(160.365656 265.326188) scale(0.12 -0.12)">
     <use xlink:href="#ArialMT-30"/>
    </g>
   </g>
   <g id="text_165">
    <!-- 0 -->
    <g style="fill: #ffffff" transform="translate(182.541656 265.326188) scale(0.12 -0.12)">
     <use xlink:href="#ArialMT-30"/>
    </g>
   </g>
   <g id="text_166">
    <!-- 0 -->
    <g style="fill: #ffffff" transform="translate(204.717656 265.326188) scale(0.12 -0.12)">
     <use xlink:href="#ArialMT-30"/>
    </g>
   </g>
   <g id="text_167">
    <!-- 0 -->
    <g style="fill: #ffffff" transform="translate(226.893656 265.326188) scale(0.12 -0.12)">
     <use xlink:href="#ArialMT-30"/>
    </g>
   </g>
   <g id="text_168">
    <!-- 0 -->
    <g style="fill: #ffffff" transform="translate(249.069656 265.326188) scale(0.12 -0.12)">
     <use xlink:href="#ArialMT-30"/>
    </g>
   </g>
   <g id="text_169">
    <!-- 7 -->
    <g style="fill: #ffffff" transform="translate(271.245656 265.326188) scale(0.12 -0.12)">
     <use xlink:href="#ArialMT-37"/>
    </g>
   </g>
   <g id="text_170">
    <!-- 69 -->
    <g style="fill: #ffffff" transform="translate(290.085094 265.326188) scale(0.12 -0.12)">
     <use xlink:href="#ArialMT-36"/>
     <use xlink:href="#ArialMT-39" transform="translate(55.615234 0)"/>
    </g>
   </g>
  </g>
 </g>
 <defs>
  <clipPath id="paa70a0d7dc">
   <rect x="41.734219" y="7.2" width="266.112" height="266.112"/>
  </clipPath>
 </defs>
</svg>
